<svg width="80" height="80" viewBox="0 0 80 80" fill="none" xmlns="http://www.w3.org/2000/svg">
<path d="M42.5709 7.86729L39.9692 7.49867C40.5192 5.8557 41.1326 3.64402 41.6508 0.51606L44.1784 0.874143C43.713 3.7704 43.1843 5.98209 42.5709 7.86729ZM44.0832 8.94153L42.7612 8.75196L43.1314 6.1506L43.5544 6.21379C43.6284 6.22432 43.6813 6.17166 43.6813 6.119L44.5485 0L47.2453 0.379146L46.2195 7.5408C46.0609 8.64664 45.4263 9.13111 44.0832 8.94153ZM46.632 8.43601L47.2771 1.31648L49.7835 1.67456L49.1596 8.80462L46.632 8.43601Z" fill="#3670C7"/>
<path d="M58.8042 6.47739L58.7196 6.61431L59.7983 7.09877L57.2601 12.6701L57.0698 12.5859L56.9217 13.2388L55.2507 12.4805L55.3988 11.8276L55.2613 11.7644C55.1344 11.975 55.0075 12.1541 54.8912 12.312L53.0721 11.4906C53.2308 11.3536 53.3894 11.1746 53.5375 10.985L53.4106 10.9218L54.2143 9.16301C54.1614 9.14195 54.1086 9.11035 54.0557 9.08929L52.9875 11.4484L48.9688 9.64748L49.984 7.4042C49.9523 7.39366 49.9206 7.3726 49.8783 7.36207L50.8195 5.28729C51.1474 5.43474 51.454 5.54006 51.7396 5.61378C51.7396 5.50846 51.729 5.41368 51.7079 5.30836C51.4752 5.31889 51.2214 5.30836 50.957 5.2557L51.6761 3.67592L51.581 3.6338L52.4799 1.65381L53.5375 2.10668L53.6115 1.9487L55.5363 2.82284L55.4623 2.98082L56.5092 3.45475L56.5621 3.3389L60.7078 5.21357L59.9041 6.97239L58.8042 6.47739ZM51.8559 9.09982L51.4752 8.92078L51.3271 9.24727L51.7079 9.42631L51.8559 9.09982ZM52.353 7.50951C52.1309 7.55164 51.9088 7.59377 51.6656 7.6043L52.7549 8.0993C52.5857 7.89919 52.4482 7.69909 52.353 7.50951ZM52.4693 5.12932C52.353 5.17144 52.2261 5.21357 52.0992 5.23464L53.051 5.66644C53.1885 5.64538 53.3154 5.60325 53.4317 5.56112L52.4693 5.12932ZM54.3624 4.19198L53.5692 3.8339L53.474 4.05507L54.2672 4.41315L54.3624 4.19198ZM55.843 5.54006L55.6843 5.46634L55.293 6.32995C55.145 6.56165 54.8806 6.79335 54.5422 7.01452C54.6902 7.09877 54.8594 7.19356 55.0604 7.27781L55.843 5.54006ZM56.2343 10.1214L55.9382 9.9845L55.7689 10.3531L56.0651 10.49L56.2343 10.1214ZM55.991 5.20304L55.9276 5.35049L56.7631 5.72963L56.8477 5.59272L55.991 5.20304ZM56.7736 8.92078L56.4775 8.7944L56.3083 9.16301L56.6044 9.29993L56.7736 8.92078ZM57.3024 7.77281L57.0063 7.6359L56.8582 7.96238L57.1544 8.0993L57.3024 7.77281Z" fill="#3670C7"/>
<path d="M61.2804 12.7221L60.0536 14.1439C59.5672 14.7021 58.7845 14.7758 58.2875 14.3546L57.0396 13.2908L58.6471 11.4162L58.9009 11.6373C58.9855 11.7111 59.1124 11.7005 59.1864 11.6163L59.2922 11.4899C59.123 11.3635 58.9643 11.2582 58.8163 11.1423L60.4872 9.19395C60.6353 9.3098 60.7939 9.42565 60.9631 9.5415L61.4814 8.94119L61.0372 8.56204L62.5495 6.80322L62.9937 7.18237L63.2687 6.86641L65.0242 8.36194L64.7493 8.67789L65.1511 9.02544L63.6388 10.7843L63.2475 10.4367L62.9831 10.7421C63.1629 10.8264 63.3321 10.9106 63.4907 10.9738L61.7775 12.9644C61.6188 12.8906 61.4602 12.8169 61.2804 12.7221ZM61.9678 17.5036L62.3274 17.0928L61.9573 16.7769L61.5977 17.1876L59.7364 15.5973L63.2792 11.4794L67.3826 14.9759L63.8397 19.0939L61.9678 17.5036ZM63.3956 15.8501L63.0254 15.5341L62.7928 15.7974L63.1629 16.1134L63.3956 15.8501ZM63.3956 11.3424L65.5319 8.85693L69.6352 12.364L67.499 14.8496L63.3956 11.3424ZM64.4637 14.6073L64.0936 14.2914L63.8715 14.5547L64.2416 14.8706L64.4637 14.6073ZM66.9279 12.027L66.2616 11.4583L66.0501 11.7005L66.7164 12.2692L66.9279 12.027Z" fill="#3670C7"/>
<path d="M68.7993 23.7276C67.8475 23.717 66.9486 23.4432 66.2823 22.8429L66.4727 22.727L65.8487 21.7792L66.1025 21.5791C65.6583 21.5896 65.2987 21.3474 64.9815 20.8524L64.3892 19.9572L64.569 19.8413L63.9133 18.8408C64.3892 18.746 65.0661 18.3563 65.6689 17.9666L66.3563 19.0093C66.3034 19.0409 66.24 19.083 66.1765 19.1251L66.24 19.2305C66.2717 19.2726 66.314 19.2515 66.3669 19.2199L66.589 19.083L65.7852 17.8613L67.2235 16.924L69.6877 20.6733L68.757 21.2736C69.5819 21.6738 70.0473 21.6738 71.0414 21.0419C70.8722 21.0841 70.7029 21.1157 70.5443 21.1157L69.9838 20.2626L69.7194 20.4311L67.4456 16.9872L68.5772 16.2499L70.6183 19.3463C70.6818 19.3358 70.7453 19.3252 70.7981 19.3042L68.6301 16.0182L69.8252 15.2389L70.4491 16.1973L70.5972 16.1025L69.9732 15.1441L71.1683 14.3647L71.7923 15.3231L71.9826 15.1968L73.1354 16.945L72.945 17.0714L73.5161 17.9456L72.321 18.7249L71.7499 17.8508L71.6019 17.9456L72.173 18.8197L71.8346 19.0409C72.6595 18.7987 73.3892 18.4722 73.8968 18.1457L75.1553 20.0519C75.0602 20.1151 74.965 20.1783 74.8381 20.231L75.9379 21.9055L74.2353 23.0114L72.5749 23.7907L71.9932 22.8955C71.9086 22.9482 71.8346 22.9903 71.7605 23.0219C70.9779 23.7276 70.9145 24.2963 71.2 24.9914L68.7253 26.6027C68.3446 25.5601 68.408 24.6017 68.7993 23.7276ZM68.2282 21.5685L67.6994 20.7576L67.5091 20.884L68.0379 21.6949L68.2282 21.5685ZM72.7652 20.9682C72.6806 20.9893 72.5854 21.0103 72.4903 21.0314L72.8393 21.5685L73.0825 21.4632L72.7652 20.9682Z" fill="#3670C7"/>
<path d="M74.5746 30.2472C74.2044 30.3631 73.7708 30.1314 73.665 29.7628C73.5487 29.3942 73.7391 28.9624 74.1515 28.8465C74.564 28.7307 74.9553 28.9308 75.0822 29.3415C75.1879 29.7417 74.9447 30.1419 74.5746 30.2472Z" fill="#3670C7"/>
<path d="M72.1523 39.6741L72.0571 35.493L79.9043 35.314L79.9995 39.6741C80.0524 41.9596 78.6881 42.8758 76.9325 42.9074L75.6846 42.939C73.4849 42.9811 72.2052 42.1175 72.1523 39.6741ZM76.7316 40.0428C77.0912 40.0322 77.4508 39.8216 77.4402 39.1897L77.419 38.1892L74.7116 38.2523L74.7328 39.1686C74.7539 39.948 75.1347 40.0849 75.5471 40.0744L76.7316 40.0428Z" fill="#3670C7"/>
<path d="M71.052 48.1722L71.5279 46.0658C71.9192 44.3492 72.9027 43.7804 74.4045 44.1174L75.5678 44.3807C77.0378 44.7178 77.683 45.6656 77.2917 47.3718L76.8157 49.4782C76.4139 51.2264 75.3563 51.6898 74.0026 51.3844L72.7652 51.1001C71.401 50.7946 70.6501 49.9205 71.052 48.1722ZM74.0766 48.7515C74.2564 48.7936 74.4574 48.7304 74.5208 48.4566L74.7852 47.277C74.8487 46.9821 74.69 46.8557 74.5208 46.8136L74.2776 46.7609C74.0661 46.7083 73.8968 46.7399 73.8228 47.0664L73.5584 48.2459C73.4844 48.5514 73.6748 48.6672 73.844 48.6988L74.0766 48.7515Z" fill="#3670C7"/>
<path d="M68.4616 54.8711L70.9364 56.0928C71.2642 56.2508 71.4546 56.1455 71.6026 55.84L71.8776 55.2924C72.0362 54.9764 71.9622 54.7026 71.6872 54.5657L69.2125 53.344L70.4499 50.8374L73.7812 52.4804C74.934 53.0491 75.3464 54.0496 74.7648 55.2081L73.3688 58.0201C72.7977 59.1786 71.6767 59.5894 70.5345 59.0206L67.2031 57.3777L68.4616 54.8711Z" fill="#3670C7"/>
<path d="M63.4584 61.9275L65.7534 59.1997C66.5677 58.2308 67.5513 58.136 68.2704 58.7363L68.5771 58.9996C69.2857 59.5894 69.3068 60.4952 68.5559 61.3798L66.7263 63.5494C66.885 63.6758 67.0225 63.6758 67.1917 63.4757L69.7827 60.3898L71.2951 61.6537L68.1012 65.4451C67.033 66.7195 66.0918 66.551 64.9602 65.6136L63.4267 64.3288C62.7181 63.7495 62.6653 62.8648 63.4584 61.9275ZM65.5313 62.4962C65.5947 62.5489 65.6899 62.5489 65.7851 62.433L66.7158 61.3272C66.8321 61.1903 66.8215 61.1165 66.7475 61.0534L66.684 61.0007C66.61 60.9375 66.5254 60.9375 66.4091 61.0744L65.4784 62.1803C65.3727 62.3066 65.3832 62.3698 65.4678 62.4436L65.5313 62.4962Z" fill="#3670C7"/>
<path d="M60.878 68.4665L60.6031 68.0979C60.4444 67.8873 60.3915 67.8767 60.1377 68.0558L58.012 69.6356L56.5103 67.6345L59.3551 65.5176C60.6348 64.5697 61.5443 64.8225 62.2212 65.7388L63.0461 66.8446L64.0085 66.1284L65.5208 68.1506L64.5584 68.8667L65.2141 69.7409L63.0355 71.3628L62.3798 70.4886L59.8733 72.3528L58.361 70.3306L60.878 68.4665Z" fill="#3670C7"/>
<path d="M52.132 72.1004L54.8288 70.9208C54.7336 70.7523 54.5961 70.6575 54.3106 70.7839L50.5033 72.4479L49.7207 70.6786L54.2788 68.688C55.6325 68.0983 56.468 68.4563 57.092 69.8887L57.8217 71.5527C58.1813 72.3637 58.0227 73.4063 56.7641 73.954L53.6443 75.3126C52.4915 75.8181 51.6455 75.4495 51.2225 74.4911L51.0956 74.2067C50.736 73.3431 50.8735 72.6585 52.132 72.1004ZM53.5385 73.301C53.5808 73.4063 53.7078 73.459 53.8558 73.3958L55.2095 72.806C55.4422 72.7112 55.5268 72.5111 55.4422 72.3005L55.4104 72.2267L53.676 72.985C53.5385 73.0377 53.4751 73.143 53.528 73.2694L53.5385 73.301Z" fill="#3670C7"/>
<path d="M44.7083 75.43C44.6449 75.0509 44.941 74.6612 45.3217 74.598C45.7024 74.5348 46.1043 74.7876 46.1678 75.2089C46.2312 75.6301 45.9668 75.9882 45.5438 76.0514C45.1313 76.1146 44.7718 75.8092 44.7083 75.43Z" fill="#3670C7"/>
<path d="M33.6975 71.5746L33.1158 78.7047L30.6094 78.3782L31.1593 71.2376L33.6975 71.5746ZM36.2357 71.048L37.5576 71.2271L37.2086 73.8284L36.7856 73.7758C36.7116 73.7653 36.6587 73.8179 36.6587 73.8706L35.8444 80.0001L33.1476 79.642L34.0994 72.4698C34.258 71.3535 34.8925 70.869 36.2357 71.048ZM37.7586 72.1012L40.3602 72.4488C39.8208 74.1023 39.2392 76.314 38.7527 79.4419L36.2251 79.1049C36.6587 76.2086 37.1663 73.9969 37.7586 72.1012Z" fill="#3670C7"/>
<path d="M21.5153 73.6482L21.5999 73.5113L20.5212 73.0374L23.0065 67.4344L23.1968 67.5187L23.3343 66.8657L25.0159 67.603L24.8784 68.2559L25.0159 68.3191C25.1428 68.0979 25.2591 67.9294 25.386 67.7715L27.2156 68.5824C27.057 68.7193 26.9089 68.9089 26.7609 69.0985L26.8983 69.1617L26.1157 70.931C26.1686 70.9521 26.2215 70.9731 26.2744 71.0047L27.3214 68.6351L31.3402 70.4044L30.346 72.6582C30.3778 72.6688 30.4095 72.6898 30.4518 72.7004L29.5105 74.7751C29.1721 74.6277 28.876 74.5224 28.5905 74.4592C28.5905 74.5645 28.601 74.6593 28.6222 74.7646C28.8549 74.7541 29.1087 74.7541 29.3836 74.8173L28.6751 76.4076L28.7702 76.4497L27.8925 78.4402L26.8349 77.9768L26.7609 78.1348L24.8255 77.2817L24.8995 77.1237L23.8525 76.6603L23.7997 76.7762L19.6328 74.9436L20.4154 73.1743L21.5153 73.6482ZM23.017 72.3423L23.3132 72.4792L23.4612 72.1527L23.1651 72.0158L23.017 72.3423ZM24.3496 74.891L24.413 74.7435L23.5776 74.3749L23.493 74.5118L24.3496 74.891ZM23.5247 71.1838L23.8208 71.3207L23.9794 70.9521L23.6833 70.8152L23.5247 71.1838ZM24.064 69.9831L24.3602 70.1201L24.5188 69.7514L24.2227 69.6145L24.064 69.9831ZM24.4977 74.5645L24.6563 74.6382L25.037 73.7746C25.1851 73.5429 25.4495 73.3007 25.7879 73.09C25.6398 73.0058 25.46 72.9215 25.2697 72.8267L24.4977 74.5645ZM25.9888 75.902L26.7926 76.2496L26.8878 76.0284L26.084 75.6809L25.9888 75.902ZM27.8713 74.9331C27.9876 74.891 28.104 74.8489 28.2415 74.8173L27.2791 74.396C27.1416 74.4171 27.0147 74.4592 26.8983 74.5013L27.8713 74.9331ZM27.9665 72.5529C28.1886 72.5108 28.4107 72.4687 28.6539 72.4581L27.5646 71.9737C27.7338 72.1738 27.8713 72.3633 27.9665 72.5529ZM28.4424 70.9626L28.8337 71.1311L28.9818 70.7941L28.5905 70.6256L28.4424 70.9626Z" fill="#3670C7"/>
<path d="M16.8949 68.8259L14.7797 71.3325L10.634 67.8675L12.7492 65.361L16.8949 68.8259ZM18.2486 62.6437L17.8996 63.065L18.2803 63.381L18.6293 62.9597L20.5118 64.5289L17.0006 68.689L12.8655 65.224L16.3767 61.064L18.2486 62.6437ZM13.3414 68.173L14.0077 68.7312L14.2192 68.4784L13.5529 67.9202L13.3414 68.173ZM18.9889 67.4252L20.2051 65.9823C20.681 65.4136 21.4636 65.3399 21.9712 65.7506L23.2297 66.8038L21.6328 68.689L21.379 68.4679C21.2944 68.3941 21.1675 68.4047 21.0934 68.4889L20.9877 68.6153C21.1675 68.7311 21.3261 68.847 21.4636 68.9629L19.8138 70.9218C19.6657 70.8164 19.4965 70.7006 19.3379 70.5847L18.8197 71.1956L19.2744 71.5747L17.7832 73.3441L17.3285 72.9649L17.0535 73.2914L15.2874 71.8064L15.5623 71.48L15.1604 71.1429L16.6516 69.3736L17.0535 69.7106L17.3179 69.4052C17.1381 69.3209 16.9689 69.2367 16.8103 69.184L18.5024 67.183C18.6504 67.2567 18.8091 67.3409 18.9889 67.4252ZM15.7844 65.5716L16.1651 65.8876L16.3872 65.6243L16.0065 65.3083L15.7844 65.5716ZM16.842 64.3183L17.2227 64.6343L17.4448 64.371L17.0641 64.055L16.842 64.3183Z" fill="#3670C7"/>
<path d="M11.3629 56.4938C12.3147 56.4938 13.2242 56.7571 13.8905 57.3575L13.7107 57.4838L14.3453 58.4212L14.0914 58.6213C14.5356 58.6002 14.8952 58.853 15.2231 59.3374L15.8259 60.2326L15.6461 60.3485L16.3124 61.349C15.8364 61.4438 15.1596 61.844 14.5674 62.2337L13.8694 61.2016C13.9222 61.1595 13.9857 61.1279 14.0491 61.0857L13.9751 60.9804C13.9434 60.9383 13.9011 60.9593 13.8482 61.0015L13.6367 61.1489L14.451 62.3601L13.0233 63.3185L10.5169 59.6007L11.4369 58.9899C10.6015 58.6002 10.1467 58.6002 9.16316 59.2427C9.33237 59.2005 9.50158 59.1689 9.66022 59.1689L10.2313 60.022L10.4957 59.843L12.8012 63.2658L11.6696 64.0136L9.59676 60.9383C9.52273 60.9278 9.46985 60.9488 9.4064 60.9699L11.6062 64.2348L10.4111 65.0246L9.77655 64.0768L9.62849 64.1716L10.263 65.1194L9.07855 65.9093L8.44401 64.9614L8.25364 65.0878L7.09031 63.3501L7.28068 63.2237L6.69901 62.3601L7.88349 61.5702L8.46516 62.4338L8.61322 62.339L8.03155 61.4649L8.36998 61.2437C7.54507 61.4965 6.81534 61.8335 6.31828 62.16L5.03862 60.2642C5.1338 60.2011 5.22898 60.1379 5.35589 60.0747L4.23486 58.4106L5.92698 57.2837L7.58737 56.4938L8.17961 57.3785C8.26422 57.3259 8.33825 57.2837 8.41228 57.2416C9.18431 56.5254 9.24776 55.9567 8.96222 55.2616L11.4158 53.6187C11.7965 54.6613 11.7436 55.6197 11.3629 56.4938ZM7.42874 59.2953C7.51334 59.2743 7.60852 59.2427 7.70371 59.2321L7.34413 58.695L7.11146 58.8109L7.42874 59.2953ZM11.9552 58.6529L12.4945 59.4533L12.6849 59.3269L12.1455 58.5265L11.9552 58.6529Z" fill="#3670C7"/>
<path d="M5.53573 50.0363C5.90588 49.9204 6.33948 50.1416 6.45582 50.5102C6.57215 50.8788 6.38179 51.3106 5.97991 51.437C5.57803 51.5634 5.17615 51.3528 5.04924 50.9526C4.92234 50.5523 5.17615 50.1521 5.53573 50.0363Z" fill="#3670C7"/>
<path d="M7.86189 40.5994L7.99937 44.7805L0.152178 45.0438L0.00411778 40.6942C-0.0699124 38.4088 1.28378 37.482 3.03935 37.4293L4.28729 37.3872C6.49762 37.3134 7.77728 38.1665 7.86189 40.5994ZM3.27202 40.2834C2.91245 40.294 2.55287 40.5151 2.57402 41.147L2.60575 42.1476L5.31314 42.0633L5.29199 41.1365C5.27083 40.3572 4.87953 40.2308 4.46708 40.2413L3.27202 40.2834Z" fill="#3670C7"/>
<path d="M8.86659 32.1128L8.41184 34.2192C8.04169 35.9464 7.06872 36.5152 5.55639 36.1992L4.39306 35.9464C2.91245 35.6305 2.26733 34.6826 2.63749 32.9765L3.09224 30.8701C3.47297 29.1218 4.53054 28.6373 5.88424 28.9322L7.1216 29.1955C8.49644 29.4904 9.24732 30.3646 8.86659 32.1128ZM5.84193 31.5652C5.66215 31.5336 5.46121 31.5968 5.39775 31.8706L5.14394 33.0502C5.08048 33.3451 5.24969 33.4715 5.4189 33.5136L5.66215 33.5662C5.87366 33.6084 6.04287 33.5768 6.1169 33.2608L6.37072 32.0812C6.43418 31.7758 6.24381 31.66 6.08518 31.6284L5.84193 31.5652Z" fill="#3670C7"/>
<path d="M11.3932 25.3518L8.90788 24.1617C8.58003 24.0037 8.38966 24.109 8.2416 24.4144L7.97721 24.9621C7.81857 25.2781 7.89261 25.5519 8.17815 25.6888L10.6634 26.8789L9.44724 29.3855L6.10531 27.7741C4.95255 27.2159 4.52952 26.2154 5.09004 25.0569L6.4543 22.2344C7.01482 21.0653 8.12527 20.6546 9.27803 21.2128L12.62 22.8241L11.3932 25.3518Z" fill="#3670C7"/>
<path d="M16.3316 18.2398L14.0578 20.9886C13.254 21.968 12.2705 22.0734 11.5513 21.473L11.2341 21.2203C10.5149 20.6305 10.4938 19.7353 11.2341 18.8401L13.0425 16.6495C12.8839 16.5231 12.7464 16.5231 12.5772 16.7337L10.0073 19.8406L8.48438 18.5873L11.6465 14.7537C12.7041 13.4688 13.6559 13.6268 14.7875 14.5536L16.3316 15.8174C17.0613 16.4072 17.1142 17.2919 16.3316 18.2398ZM14.2587 17.6921C14.1953 17.6395 14.1001 17.6395 14.0049 17.7553L13.0848 18.8717C12.9685 19.0086 12.9791 19.0823 13.0531 19.1455L13.1165 19.1982C13.1906 19.2614 13.2752 19.2614 13.3915 19.1244L14.3116 18.0081C14.4174 17.8817 14.4068 17.8185 14.3222 17.7448L14.2587 17.6921Z" fill="#3670C7"/>
<path d="M18.8394 11.6807L19.1249 12.0493C19.2835 12.2599 19.347 12.2705 19.5902 12.0809L21.6948 10.4801L23.2177 12.4706L20.394 14.6191C19.1249 15.588 18.2154 15.3352 17.5174 14.4295L16.6713 13.3342L15.7195 14.0609L14.186 12.0598L15.1379 11.3331L14.4716 10.4695L16.6396 8.82655L17.3059 9.69017L19.7912 7.79443L21.3247 9.79548L18.8394 11.6807Z" fill="#3670C7"/>
<path d="M27.5526 7.94979L24.8663 9.16095C24.9615 9.31893 25.1096 9.41372 25.3846 9.29787L29.1812 7.59171L29.985 9.36106L25.448 11.3937C24.0943 12.0046 23.2588 11.6465 22.6137 10.2247L21.8628 8.56064C21.5033 7.76022 21.6407 6.70704 22.8887 6.13832L25.9979 4.74811C27.1507 4.23205 27.9968 4.59014 28.4304 5.538L28.5573 5.82236C28.938 6.6965 28.8111 7.39161 27.5526 7.94979ZM26.1354 6.77023C26.0931 6.66491 25.9662 6.61225 25.8182 6.68597L24.4645 7.29682C24.2318 7.40214 24.1472 7.60224 24.2424 7.80235L24.2741 7.87607L26.0085 7.09671C26.1354 7.03352 26.2095 6.93874 26.1566 6.81235L26.1354 6.77023Z" fill="#3670C7"/>
<path d="M34.9253 4.56081C34.9888 4.93996 34.7033 5.34017 34.3225 5.39283C33.9418 5.44549 33.5399 5.21379 33.4765 4.79252C33.413 4.37124 33.6668 4.01316 34.0899 3.94997C34.5129 3.88678 34.8619 4.18167 34.9253 4.56081Z" fill="#3670C7"/>
<path d="M34.152 38.6105C37.203 38.6105 39.6902 35.2882 39.6902 31.2063C39.6902 27.1309 37.203 23.8086 34.152 23.8086C31.101 23.8086 28.6138 27.1309 28.6138 31.2129C28.6138 35.2948 31.101 38.6105 34.152 38.6105Z" fill="#3670C7"/>
<path d="M50.5728 45.8094C50.4601 45.6575 50.3473 45.5122 50.2942 45.3867C49.0539 42.7447 45.6647 39.6337 40.1663 39.561H39.954C34.5418 39.561 31.1725 42.5069 29.8194 45.2678C29.773 45.3603 29.6735 45.4858 29.5608 45.6113C29.4347 45.7632 29.3021 45.9151 29.196 46.0868C28.0552 47.8504 27.4781 49.8385 27.5643 51.6813C27.6506 53.6364 28.473 55.2084 29.8725 56.1067C30.4363 56.47 31.0465 56.6483 31.6898 56.6483C33.0097 56.6483 34.2168 55.9086 35.6163 55.0499C36.5051 54.5017 37.427 53.9403 38.4484 53.5175C38.5612 53.4779 39.0321 53.4251 39.8015 53.4251C40.7168 53.4251 41.3668 53.5043 41.5061 53.5506C42.5009 53.9865 43.3764 54.5611 44.2254 55.116C45.5254 55.968 46.7524 56.7738 48.079 56.7738C48.6494 56.7738 49.2065 56.6219 49.7238 56.3313C52.6024 54.6998 53.1529 50.2348 50.9442 46.3709C50.8381 46.1661 50.7055 45.9878 50.5728 45.8094Z" fill="#3670C7"/>
<path d="M45.9254 38.6105C48.9764 38.6105 51.4636 35.2882 51.4636 31.2063C51.4636 27.1309 48.983 23.8086 45.9254 23.8086C42.8744 23.8086 40.3872 27.1309 40.3872 31.2129C40.3872 35.2948 42.8744 38.6105 45.9254 38.6105Z" fill="#3670C7"/>
<path d="M55.0178 34.8125C52.5704 34.8125 50.6536 37.3422 50.6536 40.5655C50.6536 43.7888 52.5704 46.3185 55.0178 46.3185C57.4652 46.3185 59.3821 43.7888 59.3821 40.5655C59.3821 37.3356 57.4652 34.8125 55.0178 34.8125Z" fill="#3670C7"/>
<path d="M29.8801 40.5655C29.8801 37.3356 27.9633 34.8125 25.5159 34.8125C23.0684 34.8125 21.1516 37.3356 21.1516 40.5655C21.1516 43.7888 23.0684 46.3185 25.5159 46.3185C27.9633 46.3185 29.8801 43.7888 29.8801 40.5655Z" fill="#3670C7"/>
</svg>
