<svg width="130" height="130" viewBox="0 0 130 130" fill="none" xmlns="http://www.w3.org/2000/svg">
<path d="M69.1766 12.7843L64.949 12.1853C65.8426 9.51552 66.8394 5.92153 67.6815 0.838598L71.7888 1.42048C71.0327 6.1269 70.1734 9.72089 69.1766 12.7843ZM71.6342 14.53L69.486 14.2219L70.0875 9.99472L70.7749 10.0974C70.8952 10.1145 70.9811 10.0289 70.9811 9.94337L72.3903 0L76.7726 0.616113L75.1056 12.2538C74.8479 14.0508 73.8167 14.838 71.6342 14.53ZM75.7759 13.7085L76.8242 2.13928L80.8972 2.72116L79.8832 14.3075L75.7759 13.7085Z" fill="white"/>
<path d="M95.5546 10.5258L95.4171 10.7483L97.17 11.5356L93.0455 20.589L92.7362 20.4521L92.4956 21.5132L89.7803 20.2809L90.0209 19.2199L89.7974 19.1172C89.5912 19.4595 89.385 19.7504 89.1959 20.0071L86.24 18.6722C86.4978 18.4497 86.7556 18.1588 86.9962 17.8507L86.79 17.748L88.0961 14.89C88.0101 14.8557 87.9242 14.8044 87.8383 14.7702L86.1025 18.6037L79.572 15.6772L81.2218 12.0319C81.1703 12.0148 81.1187 11.9805 81.05 11.9634L82.5795 8.59191C83.1122 8.83151 83.6106 9.00266 84.0746 9.12246C84.0746 8.95131 84.0575 8.79729 84.0231 8.62614C83.645 8.64326 83.2325 8.62614 82.8029 8.54057L83.9715 5.97344L83.8169 5.90498L85.2776 2.6875L86.9962 3.42341L87.1165 3.1667L90.2443 4.58718L90.124 4.84389L91.8253 5.61404L91.9113 5.42578L98.648 8.47211L97.3419 11.3302L95.5546 10.5258ZM84.2637 14.7873L83.645 14.4963L83.4044 15.0269L84.0231 15.3178L84.2637 14.7873ZM85.0714 12.203C84.7105 12.2715 84.3496 12.3399 83.9543 12.357L85.7245 13.1614C85.4495 12.8362 85.2261 12.5111 85.0714 12.203ZM85.2604 8.3352C85.0714 8.40366 84.8652 8.47211 84.6589 8.50634L86.2057 9.20803C86.4291 9.1738 86.6353 9.10534 86.8243 9.03689L85.2604 8.3352ZM88.3367 6.81203L87.0477 6.23015L86.8931 6.58955L88.182 7.17143L88.3367 6.81203ZM90.7426 9.00266L90.4849 8.88286L89.849 10.2862C89.6084 10.6627 89.1788 11.0393 88.6288 11.3987C88.8694 11.5356 89.1444 11.6896 89.4709 11.8265L90.7426 9.00266ZM91.3785 16.4474L90.8973 16.2249L90.6223 16.8239L91.1035 17.0464L91.3785 16.4474ZM90.9832 8.455L90.8801 8.6946L92.2378 9.31071L92.3753 9.08823L90.9832 8.455ZM92.255 14.4963L91.7738 14.291L91.4988 14.89L91.98 15.1124L92.255 14.4963ZM93.1143 12.6309L92.6331 12.4084L92.3925 12.9389L92.8737 13.1614L93.1143 12.6309Z" fill="white"/>
<path d="M99.5796 20.6748L97.5861 22.9853C96.7956 23.8923 95.5239 24.0121 94.7161 23.3276L92.6882 21.599L95.3004 18.5527L95.7129 18.9121C95.8504 19.0319 96.0566 19.0148 96.1769 18.8779L96.3488 18.6725C96.0738 18.4671 95.816 18.296 95.5754 18.1077L98.2907 14.9416C98.5313 15.1298 98.7891 15.3181 99.0641 15.5063L99.9062 14.5308L99.1844 13.9147L101.642 11.0566L102.364 11.6728L102.811 11.1593L105.663 13.5895L105.217 14.103L105.87 14.6677L103.412 17.5258L102.776 16.9611L102.347 17.4574C102.639 17.5943 102.914 17.7312 103.171 17.8339L100.387 21.0685C100.13 20.9487 99.8718 20.8289 99.5796 20.6748ZM100.697 28.4447L101.281 27.7773L100.68 27.2638L100.095 27.9313L97.0706 25.347L102.828 18.6554L109.496 24.3373L103.739 31.029L100.697 28.4447ZM103.017 25.7578L102.415 25.2443L102.037 25.6722L102.639 26.1856L103.017 25.7578ZM103.017 18.4329L106.488 14.3939L113.156 20.093L109.685 24.1319L103.017 18.4329ZM104.753 23.7383L104.151 23.2249L103.79 23.6527L104.392 24.1662L104.753 23.7383ZM108.757 19.5453L107.674 18.6211L107.33 19.0148L108.413 19.9389L108.757 19.5453Z" fill="white"/>
<path d="M111.797 38.5573C110.25 38.5402 108.789 38.0953 107.707 37.1197L108.016 36.9315L107.002 35.3912L107.415 35.066C106.693 35.0831 106.108 34.6895 105.593 33.8851L104.631 32.4304L104.923 32.2422L103.857 30.6163C104.631 30.4623 105.73 29.8291 106.71 29.1958L107.827 30.8902C107.741 30.9415 107.638 31.01 107.535 31.0784L107.638 31.2496C107.69 31.318 107.758 31.2838 107.844 31.2324L108.205 31.01L106.899 29.0247L109.236 27.5015L113.24 33.5942L111.728 34.5697C113.069 35.2201 113.825 35.2201 115.44 34.1932C115.165 34.2617 114.89 34.313 114.633 34.313L113.722 32.9268L113.292 33.2006L109.597 27.6042L111.436 26.4062L114.753 31.4378C114.856 31.4207 114.959 31.4036 115.045 31.3694L111.522 26.0297L113.464 24.7633L114.478 26.3207L114.718 26.1666L113.705 24.6092L115.646 23.3428L116.66 24.9002L116.97 24.6948L118.843 27.5358L118.534 27.7411L119.462 29.1616L117.52 30.4281L116.592 29.0076L116.351 29.1616L117.279 30.5821L116.729 30.9415C118.07 30.5479 119.255 30.0173 120.08 29.4868L122.125 32.5845C121.971 32.6872 121.816 32.7898 121.61 32.8754L123.397 35.5966L120.63 37.3936L117.932 38.66L116.987 37.2053C116.849 37.2909 116.729 37.3593 116.609 37.4107C115.337 38.5573 115.234 39.4815 115.698 40.611L111.677 43.2295C111.058 41.5352 111.161 39.9778 111.797 38.5573ZM110.869 35.0489L110.01 33.7311L109.7 33.9365L110.56 35.2543L110.869 35.0489ZM118.242 34.0734C118.104 34.1076 117.949 34.1419 117.795 34.1761L118.362 35.0489L118.757 34.8778L118.242 34.0734Z" fill="white"/>
<path d="M121.183 49.1523C120.581 49.3406 119.877 48.9641 119.705 48.3651C119.516 47.7661 119.825 47.0644 120.495 46.8761C121.166 46.6879 121.802 47.013 122.008 47.6805C122.18 48.3308 121.784 48.9812 121.183 49.1523Z" fill="white"/>
<path d="M117.247 64.4691L117.093 57.6747L129.844 57.3838L129.999 64.4691C130.085 68.1829 127.868 69.6718 125.015 69.7232L122.987 69.7745C119.413 69.843 117.333 68.4396 117.247 64.4691ZM124.689 65.0681C125.273 65.051 125.857 64.7087 125.84 63.6818L125.806 62.056L121.406 62.1587L121.44 63.6476C121.475 64.9141 122.094 65.1365 122.764 65.1194L124.689 65.0681Z" fill="white"/>
<path d="M115.458 78.2804L116.231 74.8575C116.867 72.0679 118.465 71.1437 120.906 71.6914L122.796 72.1193C125.185 72.6669 126.233 74.2072 125.597 76.9797L124.824 80.4026C124.171 83.2435 122.452 83.9965 120.252 83.5002L118.242 83.0382C116.025 82.5418 114.805 81.1214 115.458 78.2804ZM120.373 79.2217C120.665 79.2901 120.991 79.1874 121.095 78.7425L121.524 76.8257C121.627 76.3465 121.37 76.1411 121.095 76.0727L120.699 75.9871C120.356 75.9015 120.081 75.9529 119.96 76.4834L119.531 78.4002C119.41 78.8965 119.72 79.0848 119.995 79.1361L120.373 79.2217Z" fill="white"/>
<path d="M111.248 89.1641L115.269 91.1494C115.802 91.4061 116.111 91.235 116.352 90.7386L116.799 89.8487C117.057 89.3353 116.936 88.8903 116.49 88.6678L112.468 86.6826L114.479 82.6094L119.892 85.2792C121.766 86.2034 122.436 87.8292 121.491 89.7118L119.222 94.2813C118.294 96.1639 116.472 96.8313 114.616 95.9071L109.203 93.2373L111.248 89.1641Z" fill="white"/>
<path d="M103.118 100.631L106.848 96.1982C108.171 94.6237 109.769 94.4697 110.938 95.4452L111.436 95.873C112.588 96.8314 112.622 98.3032 111.402 99.7408L108.429 103.266C108.687 103.472 108.91 103.472 109.185 103.147L113.395 98.1321L115.853 100.186L110.663 106.347C108.927 108.418 107.398 108.144 105.559 106.621L103.067 104.533C101.915 103.592 101.83 102.154 103.118 100.631ZM106.487 101.555C106.59 101.641 106.745 101.641 106.899 101.452L108.412 99.6553C108.601 99.4328 108.583 99.313 108.463 99.2103L108.36 99.1247C108.24 99.022 108.102 99.022 107.913 99.2445L106.401 101.042C106.229 101.247 106.246 101.35 106.384 101.469L106.487 101.555Z" fill="white"/>
<path d="M98.9245 111.26L98.4777 110.661C98.2199 110.318 98.134 110.301 97.7216 110.592L94.2673 113.159L91.8269 109.908L96.4498 106.468C98.5293 104.927 100.007 105.338 101.107 106.827L102.448 108.624L104.011 107.46L106.469 110.746L104.905 111.91L105.971 113.33L102.43 115.966L101.365 114.545L97.2919 117.575L94.8344 114.289L98.9245 111.26Z" fill="white"/>
<path d="M84.713 117.164L89.0953 115.247C88.9406 114.973 88.7172 114.819 88.2532 115.025L82.0664 117.729L80.7947 114.854L88.2017 111.619C90.4014 110.661 91.7591 111.242 92.773 113.57L93.9588 116.274C94.5431 117.592 94.2854 119.286 92.2403 120.176L87.1705 122.384C85.2973 123.205 83.9225 122.606 83.235 121.049L83.0288 120.587C82.4445 119.183 82.6679 118.071 84.713 117.164ZM86.9987 119.115C87.0674 119.286 87.2736 119.372 87.5142 119.269L89.714 118.311C90.0921 118.157 90.2296 117.831 90.0921 117.489L90.0405 117.369L87.2221 118.602C86.9987 118.687 86.8956 118.858 86.9815 119.064L86.9987 119.115Z" fill="white"/>
<path d="M72.6497 122.574C72.5466 121.958 73.0278 121.324 73.6465 121.222C74.2652 121.119 74.9182 121.53 75.0213 122.214C75.1244 122.899 74.6948 123.481 74.0074 123.583C73.3371 123.686 72.7528 123.19 72.6497 122.574Z" fill="white"/>
<path d="M54.7582 116.307L53.813 127.894L49.74 127.363L50.6336 115.76L54.7582 116.307ZM58.8827 115.452L61.0309 115.743L60.4638 119.97L59.7764 119.884C59.6561 119.867 59.5701 119.953 59.5701 120.038L58.2468 129.999L53.8645 129.417L55.4112 117.762C55.669 115.948 56.7001 115.161 58.8827 115.452ZM61.3574 117.163L65.5851 117.728C64.7086 120.415 63.7634 124.009 62.9729 129.092L58.8655 128.544C59.5701 123.838 60.395 120.244 61.3574 117.163Z" fill="white"/>
<path d="M34.9602 119.68L35.0976 119.457L33.3447 118.687L37.3833 109.582L37.6927 109.719L37.9161 108.658L40.6486 109.856L40.4252 110.917L40.6486 111.02C40.8548 110.661 41.0438 110.387 41.2501 110.13L44.2232 111.448C43.9654 111.67 43.7248 111.978 43.4842 112.286L43.7076 112.389L42.4359 115.264C42.5218 115.299 42.6077 115.333 42.6937 115.384L44.395 111.533L50.9255 114.409L49.3101 118.071C49.3617 118.088 49.4132 118.122 49.482 118.139L47.9524 121.511C47.4025 121.271 46.9213 121.1 46.4573 120.998C46.4573 121.169 46.4745 121.323 46.5089 121.494C46.8869 121.477 47.2994 121.477 47.7462 121.579L46.5948 124.164L46.7495 124.232L45.3231 127.467L43.6045 126.714L43.4842 126.97L40.3392 125.584L40.4595 125.327L38.7582 124.574L38.6722 124.763L31.9011 121.785L33.1729 118.91L34.9602 119.68ZM37.4005 117.558L37.8817 117.78L38.1223 117.25L37.6411 117.027L37.4005 117.558ZM39.5659 121.699L39.669 121.46L38.3113 120.861L38.1739 121.083L39.5659 121.699ZM38.2254 115.675L38.7066 115.898L38.9644 115.299L38.4832 115.076L38.2254 115.675ZM39.1019 113.724L39.5831 113.947L39.8409 113.348L39.3597 113.125L39.1019 113.724ZM39.8065 121.169L40.0643 121.289L40.683 119.885C40.9235 119.509 41.3532 119.115 41.9031 118.773C41.6625 118.636 41.3704 118.499 41.061 118.345L39.8065 121.169ZM42.2297 123.342L43.5358 123.907L43.6904 123.548L42.3843 122.983L42.2297 123.342ZM45.2887 121.768C45.4777 121.699 45.6668 121.631 45.8902 121.579L44.3263 120.895C44.1029 120.929 43.8967 120.998 43.7076 121.066L45.2887 121.768ZM45.4434 117.9C45.8043 117.831 46.1651 117.763 46.5604 117.746L44.7903 116.959C45.0653 117.284 45.2887 117.592 45.4434 117.9ZM46.2167 115.316L46.8526 115.589L47.0932 115.042L46.4573 114.768L46.2167 115.316Z" fill="white"/>
<path d="M27.4529 111.843L24.0158 115.916L17.2791 110.285L20.7162 106.212L27.4529 111.843ZM29.6527 101.797L29.0855 102.481L29.7042 102.995L30.2713 102.31L33.3304 104.86L27.6248 111.62L20.9052 105.99L26.6108 99.2295L29.6527 101.797ZM21.6786 110.782L22.7613 111.689L23.105 111.278L22.0223 110.371L21.6786 110.782ZM30.8557 109.566L32.832 107.222C33.6053 106.298 34.8771 106.178 35.702 106.845L37.7471 108.557L35.1521 111.62L34.7396 111.261C34.6021 111.141 34.3959 111.158 34.2756 111.295L34.1037 111.5C34.3959 111.689 34.6537 111.877 34.8771 112.065L32.1961 115.248C31.9555 115.077 31.6806 114.889 31.4228 114.701L30.5807 115.693L31.3197 116.31L28.8965 119.185L28.1575 118.569L27.7107 119.099L24.8407 116.686L25.2875 116.155L24.6345 115.608L27.0576 112.733L27.7107 113.28L28.1403 112.784C27.8482 112.647 27.5732 112.51 27.3154 112.425L30.0651 109.173C30.3057 109.293 30.5635 109.43 30.8557 109.566ZM25.6484 106.554L26.2671 107.068L26.628 106.64L26.0093 106.127L25.6484 106.554ZM27.367 104.518L27.9857 105.031L28.3466 104.603L27.7279 104.09L27.367 104.518Z" fill="white"/>
<path d="M18.4637 91.8011C20.0104 91.8011 21.4884 92.229 22.571 93.2045L22.2789 93.4098L23.31 94.933L22.8976 95.2582C23.6194 95.2239 24.2037 95.6347 24.7364 96.4219L25.716 97.8767L25.4238 98.0649L26.5065 99.6908C25.7332 99.8448 24.6333 100.495 23.6709 101.128L22.5367 99.4512C22.6226 99.3827 22.7257 99.3314 22.8288 99.2629L22.7085 99.0918C22.657 99.0233 22.5882 99.0575 22.5023 99.126L22.1586 99.3656L23.4819 101.334L21.1618 102.891L17.0888 96.8498L18.584 95.8572C17.2263 95.2239 16.4873 95.2239 14.8891 96.2679C15.1641 96.1995 15.439 96.1481 15.6968 96.1481L16.6248 97.5344L17.0545 97.2434L20.8009 102.806L18.9621 104.021L15.5937 99.0233C15.4734 99.0062 15.3875 99.0404 15.2844 99.0746L18.859 104.38L16.917 105.664L15.8859 104.123L15.6453 104.277L16.6764 105.818L14.7516 107.101L13.7205 105.561L13.4111 105.766L11.5207 102.942L11.8301 102.737L10.8849 101.334L12.8096 100.05L13.7548 101.454L13.9954 101.3L13.0502 99.879L13.6002 99.5196C12.2597 99.9304 11.0739 100.478 10.2662 101.009L8.18672 97.928C8.34139 97.8253 8.49606 97.7226 8.70229 97.6199L6.88062 94.9159L9.63031 93.0847L12.3284 91.8011L13.2908 93.2387C13.4283 93.1531 13.5486 93.0847 13.6689 93.0162C14.9235 91.8524 15.0266 90.9283 14.5626 89.7987L18.5496 87.1289C19.1683 88.8232 19.0824 90.3806 18.4637 91.8011ZM12.0707 96.3535C12.2081 96.3193 12.3628 96.2679 12.5175 96.2508L11.9332 95.378L11.5551 95.5662L12.0707 96.3535ZM19.4261 95.3095L20.3025 96.6102L20.6119 96.4048L19.7354 95.1041L19.4261 95.3095Z" fill="white"/>
<path d="M8.99452 81.308C9.59602 81.1198 10.3006 81.4792 10.4897 82.0782C10.6787 82.6772 10.3694 83.3789 9.71632 83.5842C9.06326 83.7896 8.41021 83.4473 8.20398 82.797C7.99776 82.1466 8.41021 81.4963 8.99452 81.308Z" fill="white"/>
<path d="M12.7743 65.974L12.9977 72.7684L0.246038 73.1962L0.00544018 66.128C-0.114859 62.4142 2.08489 60.9082 4.9377 60.8226L6.9656 60.7542C10.5574 60.6344 12.6368 62.0206 12.7743 65.974ZM5.31578 65.4606C4.73147 65.4777 4.14716 65.8371 4.18153 66.8639L4.23309 68.4898L8.6326 68.3529L8.59823 66.8468C8.56385 65.5804 7.92799 65.375 7.25775 65.3921L5.31578 65.4606Z" fill="white"/>
<path d="M14.4075 52.1824L13.6685 55.6052C13.067 58.412 11.4859 59.3362 9.0284 58.8227L7.13799 58.412C4.73201 57.8986 3.68369 56.3583 4.28518 53.5858L5.02416 50.1629C5.64284 47.3219 7.3614 46.5347 9.56115 47.0139L11.5719 47.4417C13.806 47.9209 15.0262 49.3414 14.4075 52.1824ZM9.49241 51.2925C9.20025 51.2411 8.87373 51.3438 8.77062 51.7888L8.35816 53.7056C8.25505 54.1848 8.53002 54.3901 8.80499 54.4586L9.20025 54.5442C9.54397 54.6126 9.81894 54.5613 9.93923 54.0478L10.3517 52.1311C10.4548 51.6347 10.1455 51.4465 9.88768 51.3951L9.49241 51.2925Z" fill="white"/>
<path d="M18.5129 41.1957L14.4743 39.2618C13.9415 39.0051 13.6322 39.1763 13.3916 39.6726L12.9619 40.5625C12.7041 41.0759 12.8244 41.5209 13.2885 41.7434L17.3271 43.6773L15.3507 47.7505L9.92008 45.132C8.04686 44.225 7.35943 42.5991 8.27027 40.7165L10.4872 36.1299C11.398 34.2302 13.2025 33.5628 15.0758 34.4698L20.5064 37.0883L18.5129 41.1957Z" fill="white"/>
<path d="M26.5366 29.6401L22.8417 34.1069C21.5356 35.6986 19.9373 35.8697 18.7687 34.8942L18.2532 34.4834C17.0845 33.525 17.0502 32.0703 18.2532 30.6156L21.1919 27.0559C20.9341 26.8505 20.7107 26.8505 20.4357 27.1928L16.2596 32.2415L13.7849 30.2049L18.9234 23.9753C20.642 21.8874 22.1887 22.1441 24.0275 23.6501L26.5366 25.7038C27.7224 26.6622 27.8083 28.0998 26.5366 29.6401ZM23.1682 28.7502C23.0651 28.6646 22.9104 28.6646 22.7558 28.8529L21.2606 30.667C21.0716 30.8895 21.0888 31.0093 21.2091 31.1119L21.3122 31.1975C21.4325 31.3002 21.57 31.3002 21.759 31.0777L23.2542 29.2636C23.426 29.0582 23.4088 28.9555 23.2713 28.8357L23.1682 28.7502Z" fill="white"/>
<path d="M30.6119 18.9802L31.076 19.5792C31.3337 19.9215 31.4369 19.9386 31.8321 19.6305L35.252 17.0292L37.7268 20.2638L33.1382 23.7551C31.076 25.3296 29.598 24.9188 28.4637 23.447L27.0889 21.6671L25.5422 22.848L23.0503 19.5963L24.597 18.4154L23.5143 17.0121L27.0373 14.3422L28.12 15.7456L32.1586 12.665L34.6506 15.9167L30.6119 18.9802Z" fill="white"/>
<path d="M44.7707 12.9189L40.4055 14.887C40.5602 15.1438 40.8008 15.2978 41.2476 15.1095L47.4173 12.337L48.7234 15.2122L41.3508 18.5153C39.151 19.5079 37.7933 18.926 36.745 16.6156L35.5248 13.9115C34.9405 12.6108 35.1639 10.8994 37.1918 9.97525L42.2444 7.71617C44.1176 6.87757 45.4925 7.45946 46.1971 8.99974L46.4033 9.46182C47.022 10.8823 46.8158 12.0118 44.7707 12.9189ZM42.4678 11.0021C42.3991 10.831 42.1928 10.7454 41.9522 10.8652L39.7525 11.8578C39.3744 12.029 39.2369 12.3541 39.3916 12.6793L39.4432 12.7991L42.2616 11.5326C42.4678 11.43 42.5881 11.2759 42.5022 11.0706L42.4678 11.0021Z" fill="white"/>
<path d="M56.7527 7.41084C56.8558 8.02695 56.3918 8.67729 55.7731 8.76286C55.1545 8.84843 54.5014 8.47192 54.3983 7.78735C54.2952 7.10278 54.7076 6.5209 55.395 6.41821C56.0825 6.31552 56.6496 6.79472 56.7527 7.41084Z" fill="white"/>
<path d="M55.4935 62.7426C60.4514 62.7426 64.4931 57.3438 64.4931 50.7107C64.4931 44.0883 60.4514 38.6895 55.4935 38.6895C50.5356 38.6895 46.4939 44.0883 46.4939 50.7214C46.4939 57.3545 50.5356 62.7426 55.4935 62.7426Z" fill="white"/>
<path d="M82.1776 74.4407C81.9944 74.1939 81.8111 73.9577 81.7249 73.7538C79.7094 69.4605 74.2019 64.4052 65.267 64.2871H64.9221C56.1273 64.2871 50.6521 69.0741 48.4534 73.5606C48.3779 73.7109 48.2162 73.9148 48.033 74.1187C47.8282 74.3656 47.6127 74.6125 47.4402 74.8915C45.5864 77.7573 44.6487 80.988 44.7889 83.9826C44.929 87.1596 46.2654 89.7141 48.5396 91.1739C49.4557 91.7642 50.4473 92.054 51.4927 92.054C53.6376 92.054 55.5991 90.8519 57.8733 89.4565C59.3175 88.5657 60.8157 87.6534 62.4755 86.9664C62.6587 86.902 63.424 86.8162 64.6742 86.8162C66.1616 86.8162 67.2178 86.945 67.4441 87.0201C69.0608 87.7285 70.4835 88.6623 71.8631 89.5639C73.9756 90.9485 75.9695 92.2579 78.1251 92.2579C79.052 92.2579 79.9573 92.011 80.798 91.5388C85.4757 88.8877 86.3702 81.632 82.7812 75.3531C82.6087 75.0203 82.3932 74.7305 82.1776 74.4407Z" fill="white"/>
<path d="M74.6253 62.7426C79.5832 62.7426 83.6249 57.3438 83.6249 50.7107C83.6249 44.0883 79.594 38.6895 74.6253 38.6895C69.6675 38.6895 65.6257 44.0883 65.6257 50.7214C65.6257 57.3545 69.6675 62.7426 74.6253 62.7426Z" fill="white"/>
<path d="M89.4022 56.5693C85.4251 56.5693 82.3103 60.6802 82.3103 65.918C82.3103 71.1558 85.4251 75.2666 89.4022 75.2666C93.3793 75.2666 96.4941 71.1558 96.4941 65.918C96.4941 60.6694 93.3793 56.5693 89.4022 56.5693Z" fill="white"/>
<path d="M48.5527 65.918C48.5527 60.6694 45.4379 56.5693 41.4608 56.5693C37.4837 56.5693 34.3689 60.6694 34.3689 65.918C34.3689 71.1558 37.4837 75.2666 41.4608 75.2666C45.4379 75.2666 48.5527 71.1558 48.5527 65.918Z" fill="white"/>
</svg>
