<svg width="197" height="197" viewBox="0 0 197 197" fill="none" xmlns="http://www.w3.org/2000/svg">
<path d="M104.829 19.3732L98.4221 18.4655C99.7763 14.4197 101.287 8.97341 102.563 1.2708L108.787 2.15258C107.641 9.28462 106.339 14.7309 104.829 19.3732ZM108.553 22.0186L105.297 21.5517L106.209 15.1459L107.251 15.3015C107.433 15.3274 107.563 15.1977 107.563 15.0681L109.699 0L116.34 0.933649L113.813 18.5692C113.423 21.2924 111.86 22.4854 108.553 22.0186ZM114.829 20.7737L116.418 3.24184L122.59 4.12362L121.053 21.6814L114.829 20.7737Z" fill="white"/>
<path d="M144.802 15.9504L144.594 16.2875L147.25 17.4805L141 31.2L140.531 30.9925L140.166 32.6004L136.052 30.7331L136.416 29.1252L136.078 28.9696C135.765 29.4883 135.453 29.9292 135.166 30.3182L130.687 28.2953C131.078 27.9581 131.468 27.5172 131.833 27.0504L131.52 26.8948L133.499 22.5637C133.369 22.5118 133.239 22.434 133.109 22.3822L130.479 28.1915L120.582 23.7567L123.082 18.2326C123.004 18.2067 122.926 18.1548 122.822 18.1289L125.14 13.0197C125.947 13.3828 126.702 13.6422 127.405 13.8237C127.405 13.5644 127.379 13.331 127.327 13.0716C126.754 13.0975 126.129 13.0716 125.478 12.9419L127.249 9.05173L127.015 8.94799L129.228 4.07227L131.833 5.18746L132.015 4.79844L136.755 6.95102L136.573 7.34004L139.151 8.5071L139.281 8.22182L149.49 12.8382L147.511 17.1693L144.802 15.9504ZM127.692 22.4081L126.754 21.9672L126.39 22.7712L127.327 23.2121L127.692 22.4081ZM128.916 18.492C128.369 18.5957 127.822 18.6994 127.223 18.7254L129.906 19.9443C129.489 19.4515 129.15 18.9588 128.916 18.492ZM129.202 12.6307C128.916 12.7345 128.603 12.8382 128.291 12.8901L130.635 13.9534C130.973 13.9015 131.286 13.7978 131.572 13.694L129.202 12.6307ZM133.864 10.3225L131.911 9.44075L131.677 9.98538L133.63 10.8672L133.864 10.3225ZM137.51 13.6422L137.119 13.4606L136.156 15.5873C135.791 16.1578 135.14 16.7284 134.307 17.273C134.671 17.4805 135.088 17.7139 135.583 17.9214L137.51 13.6422ZM138.474 24.9238L137.744 24.5866L137.328 25.4943L138.057 25.8315L138.474 24.9238ZM137.875 12.8123L137.718 13.1753L139.776 14.109L139.984 13.7718L137.875 12.8123ZM139.802 21.9672L139.073 21.656L138.656 22.5637L139.385 22.9009L139.802 21.9672ZM141.104 19.1403L140.375 18.8032L140.01 19.6072L140.739 19.9443L141.104 19.1403Z" fill="white"/>
<path d="M150.901 31.3292L147.88 34.8304C146.682 36.2049 144.755 36.3865 143.531 35.3491L140.458 32.7297L144.416 28.1133L145.041 28.6579C145.249 28.8395 145.562 28.8135 145.744 28.6061L146.005 28.2948C145.588 27.9836 145.197 27.7243 144.833 27.439L148.947 22.6411C149.312 22.9264 149.703 23.2116 150.119 23.4969L151.395 22.0187L150.302 21.085L154.026 16.7539L155.12 17.6876L155.797 16.9095L160.12 20.5922L159.443 21.3703L160.432 22.2261L156.708 26.5572L155.745 25.7014L155.094 26.4535C155.536 26.661 155.953 26.8684 156.344 27.024L152.125 31.9257C151.734 31.7442 151.343 31.5626 150.901 31.3292ZM152.593 43.1036L153.479 42.0921L152.567 41.3141L151.682 42.3255L147.098 38.4094L155.823 28.2689L165.927 36.8792L157.203 47.0197L152.593 43.1036ZM156.109 39.0318L155.198 38.2538L154.625 38.9021L155.536 39.6802L156.109 39.0318ZM156.109 27.9318L161.37 21.8112L171.474 30.4474L166.214 36.568L156.109 27.9318ZM158.74 35.9715L157.828 35.1935L157.281 35.8418L158.193 36.6199L158.74 35.9715ZM164.808 29.6175L163.167 28.217L162.646 28.8135L164.287 30.214L164.808 29.6175Z" fill="white"/>
<path d="M169.416 58.43C167.072 58.404 164.858 57.7297 163.218 56.2515L163.686 55.9662L162.15 53.6321L162.775 53.1393C161.681 53.1652 160.796 52.5687 160.014 51.3498L158.556 49.1454L158.999 48.8601L157.384 46.3963C158.556 46.1629 160.223 45.2033 161.707 44.2437L163.4 46.8112C163.27 46.889 163.113 46.9928 162.957 47.0965L163.113 47.3559C163.192 47.4596 163.296 47.4077 163.426 47.3299L163.973 46.9928L161.994 43.9843L165.535 41.6762L171.603 50.9089L169.312 52.3872C171.343 53.3727 172.489 53.3727 174.937 51.8166C174.52 51.9204 174.103 51.9982 173.713 51.9982L172.333 49.8975L171.682 50.3124L166.082 41.8318L168.869 40.0163L173.895 47.6411C174.051 47.6152 174.208 47.5893 174.338 47.5374L168.999 39.4458L171.942 37.5266L173.478 39.8867L173.843 39.6532L172.307 37.2932L175.249 35.374L176.786 37.7341L177.255 37.4229L180.093 41.728L179.625 42.0392L181.031 44.1918L178.088 46.111L176.682 43.9584L176.317 44.1918L177.723 46.3444L176.89 46.889C178.921 46.2925 180.718 45.4886 181.968 44.6846L185.068 49.3788C184.833 49.5344 184.599 49.69 184.286 49.8197L186.995 53.9433L182.802 56.6664L178.713 58.5856L177.281 56.3811C177.072 56.5108 176.89 56.6145 176.708 56.6924C174.781 58.43 174.624 59.8304 175.328 61.5421L169.234 65.5102C168.296 62.9426 168.452 60.5826 169.416 58.43ZM168.009 53.1134L166.707 51.1164L166.239 51.4276L167.541 53.4246L168.009 53.1134ZM179.182 51.6351C178.974 51.687 178.739 51.7388 178.505 51.7907L179.364 53.1134L179.963 52.854L179.182 51.6351Z" fill="white"/>
<path d="M183.638 74.4845C182.727 74.7698 181.659 74.1992 181.399 73.2915C181.112 72.3838 181.581 71.3205 182.597 71.0352C183.612 70.7499 184.576 71.2427 184.888 72.2541C185.149 73.2397 184.55 74.2252 183.638 74.4845Z" fill="white"/>
<path d="M177.673 97.6959L177.439 87.3999L196.762 86.959L196.997 97.6959C197.127 103.324 193.768 105.58 189.444 105.658L186.371 105.736C180.954 105.839 177.803 103.713 177.673 97.6959ZM188.95 98.6037C189.835 98.5777 190.721 98.059 190.695 96.503L190.642 94.0392L183.975 94.1948L184.028 96.4511C184.08 98.3703 185.017 98.7074 186.033 98.6815L188.95 98.6037Z" fill="white"/>
<path d="M174.963 118.624L176.135 113.437C177.098 109.21 179.52 107.809 183.218 108.639L186.083 109.287C189.703 110.117 191.292 112.451 190.328 116.653L189.156 121.84C188.166 126.145 185.562 127.286 182.229 126.534L179.182 125.834C175.822 125.082 173.973 122.929 174.963 118.624ZM182.411 120.05C182.854 120.154 183.349 119.998 183.505 119.324L184.156 116.419C184.312 115.693 183.922 115.382 183.505 115.278L182.906 115.149C182.385 115.019 181.968 115.097 181.786 115.901L181.135 118.805C180.953 119.558 181.421 119.843 181.838 119.921L182.411 120.05Z" fill="white"/>
<path d="M168.584 135.119L174.678 138.127C175.485 138.516 175.954 138.257 176.318 137.505L176.996 136.156C177.386 135.378 177.204 134.704 176.527 134.366L170.433 131.358L173.48 125.186L181.683 129.231C184.522 130.632 185.538 133.096 184.105 135.948L180.668 142.873C179.261 145.726 176.501 146.737 173.688 145.337L165.485 141.291L168.584 135.119Z" fill="white"/>
<path d="M156.264 152.495L161.915 145.778C163.921 143.392 166.343 143.158 168.114 144.637L168.869 145.285C170.614 146.737 170.666 148.968 168.817 151.146L164.311 156.489C164.702 156.8 165.04 156.8 165.457 156.307L171.838 148.708L175.562 151.821L167.697 161.157C165.067 164.295 162.749 163.88 159.962 161.572L156.186 158.408C154.441 156.982 154.311 154.803 156.264 152.495ZM161.368 153.895C161.525 154.025 161.759 154.025 161.993 153.74L164.285 151.017C164.572 150.679 164.546 150.498 164.363 150.342L164.207 150.213C164.025 150.057 163.816 150.057 163.53 150.394L161.238 153.117C160.978 153.428 161.004 153.584 161.212 153.766L161.368 153.895Z" fill="white"/>
<path d="M149.909 168.601L149.232 167.693C148.841 167.174 148.711 167.148 148.086 167.589L142.852 171.479L139.154 166.552L146.159 161.339C149.31 159.005 151.55 159.627 153.217 161.884L155.248 164.607L157.618 162.843L161.342 167.823L158.972 169.586L160.587 171.739L155.222 175.733L153.607 173.58L147.435 178.171L143.711 173.191L149.909 168.601Z" fill="white"/>
<path d="M128.373 177.549L135.013 174.644C134.779 174.229 134.441 173.996 133.737 174.307L124.362 178.405L122.435 174.048L133.659 169.146C136.993 167.694 139.05 168.576 140.587 172.103L142.384 176.2C143.269 178.197 142.878 180.765 139.779 182.114L132.097 185.459C129.258 186.704 127.175 185.796 126.133 183.436L125.82 182.736C124.935 180.609 125.273 178.924 128.373 177.549ZM131.836 180.506C131.94 180.765 132.253 180.895 132.618 180.739L135.951 179.287C136.524 179.053 136.732 178.561 136.524 178.042L136.446 177.86L132.175 179.728C131.836 179.857 131.68 180.117 131.81 180.428L131.836 180.506Z" fill="white"/>
<path d="M110.092 185.746C109.935 184.813 110.665 183.853 111.602 183.698C112.54 183.542 113.529 184.164 113.686 185.202C113.842 186.239 113.191 187.121 112.149 187.277C111.133 187.432 110.248 186.68 110.092 185.746Z" fill="white"/>
<path d="M82.9778 176.251L81.5454 193.809L75.3733 193.005L76.7275 175.421L82.9778 176.251ZM89.228 174.955L92.4834 175.396L91.624 181.801L90.5823 181.672C90.4 181.646 90.2698 181.775 90.2698 181.905L88.2645 196.999L81.6236 196.117L83.9674 178.456C84.3581 175.707 85.9206 174.514 89.228 174.955ZM92.9782 177.548L99.3847 178.404C98.0566 182.476 96.6242 187.922 95.4262 195.625L89.202 194.795C90.2698 187.663 91.5198 182.216 92.9782 177.548Z" fill="white"/>
<path d="M52.9786 181.36L53.187 181.023L50.5306 179.856L56.6507 166.059L57.1194 166.266L57.458 164.658L61.5988 166.474L61.2602 168.082L61.5988 168.237C61.9113 167.693 62.1978 167.278 62.5103 166.889L67.0157 168.886C66.6251 169.223 66.2605 169.69 65.8959 170.156L66.2344 170.312L64.3073 174.669C64.4375 174.721 64.5677 174.773 64.6979 174.851L67.2761 169.015L77.1724 173.372L74.7244 178.922C74.8025 178.948 74.8806 179 74.9848 179.026L72.667 184.135C71.8336 183.772 71.1044 183.513 70.4013 183.357C70.4013 183.616 70.4273 183.85 70.4794 184.109C71.0523 184.083 71.6774 184.083 72.3545 184.239L70.6096 188.155L70.844 188.259L68.6824 193.16L66.0782 192.019L65.8959 192.408L61.13 190.308L61.3123 189.919L58.7341 188.777L58.6039 189.063L48.343 184.55L50.2702 180.193L52.9786 181.36ZM56.6767 178.144L57.4059 178.481L57.7705 177.677L57.0413 177.34L56.6767 178.144ZM59.9581 184.42L60.1144 184.057L58.057 183.15L57.8486 183.487L59.9581 184.42ZM57.9268 175.291L58.656 175.629L59.0466 174.721L58.3174 174.384L57.9268 175.291ZM59.2549 172.335L59.9841 172.672L60.3748 171.764L59.6456 171.427L59.2549 172.335ZM60.3227 183.616L60.7133 183.798L61.6509 181.671C62.0155 181.101 62.6666 180.504 63.4999 179.986C63.1353 179.778 62.6926 179.571 62.2238 179.337L60.3227 183.616ZM63.9947 186.91L65.974 187.766L66.2084 187.221L64.2291 186.366L63.9947 186.91ZM68.6304 184.524C68.9168 184.42 69.2033 184.317 69.5419 184.239L67.172 183.202C66.8334 183.253 66.5209 183.357 66.2344 183.461L68.6304 184.524ZM68.8647 178.663C69.4116 178.559 69.9585 178.455 70.5575 178.43L67.8751 177.237C68.2918 177.729 68.6304 178.196 68.8647 178.663ZM70.0367 174.747L71.0002 175.162L71.3648 174.332L70.4013 173.917L70.0367 174.747Z" fill="white"/>
<path d="M41.6002 169.485L36.3916 175.657L26.1829 167.125L31.3914 160.952L41.6002 169.485ZM44.9337 154.261L44.0743 155.299L45.0118 156.077L45.8712 155.039L50.5068 158.904L41.8606 169.148L31.6779 160.615L40.3241 150.371L44.9337 154.261ZM32.8498 167.877L34.4905 169.252L35.0114 168.629L33.3707 167.255L32.8498 167.877ZM46.7567 166.036L49.7516 162.483C50.9235 161.082 52.8507 160.901 54.1007 161.912L57.1998 164.506L53.2674 169.148L52.6423 168.603C52.434 168.422 52.1215 168.448 51.9392 168.655L51.6788 168.966C52.1215 169.252 52.5121 169.537 52.8507 169.822L48.788 174.646C48.4234 174.387 48.0067 174.101 47.6161 173.816L46.34 175.32L47.4598 176.254L43.7878 180.611L42.6679 179.677L41.9908 180.481L37.6417 176.824L38.3188 176.021L37.3292 175.191L41.0012 170.834L41.9908 171.663L42.6419 170.911C42.1992 170.704 41.7825 170.496 41.3919 170.367L45.5587 165.439C45.9233 165.621 46.3139 165.828 46.7567 166.036ZM38.8657 161.471L39.8032 162.249L40.3501 161.601L39.4126 160.823L38.8657 161.471ZM41.47 158.385L42.4075 159.163L42.9544 158.515L42.0169 157.737L41.47 158.385Z" fill="white"/>
<path d="M27.9776 139.114C30.3215 139.114 32.5612 139.763 34.2019 141.241L33.7591 141.552L35.3217 143.86L34.6967 144.353C35.7905 144.301 36.6759 144.924 37.4833 146.117L38.9677 148.321L38.525 148.606L40.1657 151.07C38.9938 151.304 37.327 152.289 35.8686 153.249L34.1498 150.707C34.28 150.603 34.4363 150.526 34.5925 150.422L34.4102 150.163C34.3321 150.059 34.2279 150.111 34.0977 150.214L33.5769 150.577L35.5821 153.56L32.0664 155.92L25.8942 146.765L28.1599 145.261C26.1026 144.301 24.9827 144.301 22.5607 145.883C22.9774 145.78 23.3941 145.702 23.7848 145.702L25.1911 147.802L25.8421 147.362L31.5195 155.79L28.7329 157.632L23.6285 150.059C23.4462 150.033 23.316 150.085 23.1597 150.137L28.5766 158.176L25.6338 160.121L24.0712 157.787L23.7066 158.021L25.2692 160.355L22.3524 162.3L20.7898 159.966L20.3211 160.277L17.4564 155.998L17.9251 155.687L16.4928 153.56L19.4096 151.615L20.8419 153.742L21.2065 153.508L19.7742 151.356L20.6075 150.811C18.5762 151.433 16.7792 152.263 15.5552 153.067L12.4041 148.399C12.6384 148.243 12.8728 148.088 13.1853 147.932L10.4248 143.834L14.5917 141.059L18.6804 139.114L20.1388 141.293C20.3471 141.163 20.5294 141.059 20.7117 140.956C22.6128 139.192 22.7691 137.792 22.0659 136.08L28.1079 132.034C29.0454 134.602 28.9152 136.962 27.9776 139.114ZM18.2897 146.013C18.4981 145.961 18.7325 145.883 18.9668 145.857L18.0814 144.535L17.5084 144.82L18.2897 146.013ZM29.436 144.431L30.7642 146.402L31.233 146.091L29.9048 144.12L29.436 144.431Z" fill="white"/>
<path d="M13.6282 123.214C14.5397 122.929 15.6074 123.473 15.8939 124.381C16.1804 125.289 15.7116 126.352 14.722 126.663C13.7324 126.974 12.7427 126.456 12.4302 125.47C12.1177 124.485 12.7427 123.499 13.6282 123.214Z" fill="white"/>
<path d="M19.3572 99.9765L19.6957 110.273L0.371977 110.921L0.00737821 100.21C-0.174921 94.5821 3.15856 92.2998 7.48166 92.1701L10.5547 92.0664C15.9977 91.8849 19.1488 93.9856 19.3572 99.9765ZM8.0546 99.1984C7.16915 99.2244 6.28369 99.769 6.33578 101.325L6.41391 103.789L13.0809 103.581L13.0288 101.299C12.9767 99.38 12.0131 99.0688 10.9974 99.0947L8.0546 99.1984Z" fill="white"/>
<path d="M21.8317 79.0768L20.7118 84.2638C19.8003 88.5171 17.4044 89.9175 13.6803 89.1395L10.8156 88.5171C7.16958 87.739 5.58097 85.4049 6.49247 81.2035L7.61231 76.0165C8.54985 71.7114 11.1541 70.5184 14.4876 71.2445L17.5346 71.8929C20.9202 72.6191 22.7692 74.7717 21.8317 79.0768ZM14.3834 77.7282C13.9407 77.6504 13.4459 77.806 13.2896 78.4803L12.6646 81.385C12.5084 82.1112 12.925 82.4224 13.3417 82.5261L13.9407 82.6558C14.4616 82.7596 14.8782 82.6817 15.0605 81.9037L15.6856 78.999C15.8418 78.2469 15.3731 77.9616 14.9824 77.8838L14.3834 77.7282Z" fill="white"/>
<path d="M28.0538 62.4272L21.9337 59.4966C21.1264 59.1075 20.6576 59.3669 20.293 60.119L19.642 61.4676C19.2513 62.2456 19.4336 62.9199 20.1368 63.2571L26.2568 66.1877L23.2619 72.3602L15.0324 68.3922C12.1937 67.0176 11.152 64.5538 12.5323 61.701L15.8918 54.7505C17.2721 51.8718 20.0066 50.8603 22.8452 52.2348L31.0747 56.2028L28.0538 62.4272Z" fill="white"/>
<path d="M40.2136 44.9153L34.6144 51.6843C32.6352 54.0962 30.2132 54.3555 28.4423 52.8773L27.661 52.2548C25.8901 50.8025 25.838 48.598 27.661 46.3936L32.1143 40.9992C31.7237 40.6879 31.3851 40.6879 30.9685 41.2066L24.6401 48.8574L20.8899 45.7711L28.6767 36.3309C31.281 33.1669 33.6248 33.5559 36.4114 35.8382L40.2136 38.9503C42.0106 40.4027 42.1408 42.5812 40.2136 44.9153ZM35.1093 43.5667C34.953 43.437 34.7186 43.437 34.4842 43.7223L32.2185 46.4714C31.932 46.8085 31.9581 46.9901 32.1404 47.1457L32.2966 47.2754C32.4789 47.431 32.6873 47.431 32.9737 47.0938L35.2395 44.3447C35.4999 44.0335 35.4739 43.8779 35.2655 43.6964L35.1093 43.5667Z" fill="white"/>
<path d="M46.3888 28.7623L47.0919 29.67C47.4826 30.1887 47.6388 30.2146 48.2378 29.7478L53.4203 25.8057L57.1705 30.7074L50.2171 35.9981C47.0919 38.3841 44.8522 37.7616 43.1334 35.5312L41.05 32.834L38.7061 34.6235L34.9299 29.6959L37.2738 27.9064L35.6331 25.7798L40.9719 21.734L42.6126 23.8606L48.7326 19.1924L52.5088 24.12L46.3888 28.7623Z" fill="white"/>
<path d="M67.8452 19.5766L61.2303 22.5591C61.4647 22.9481 61.8293 23.1815 62.5064 22.8963L71.8558 18.6948L73.8351 23.0519L62.6627 28.0573C59.3292 29.5615 57.2718 28.6797 55.6832 25.1785L53.8342 21.0808C52.9487 19.1098 53.2873 16.5163 56.3603 15.1159L64.0169 11.6925C66.8556 10.4217 68.939 11.3035 70.0068 13.6376L70.3193 14.3378C71.2568 16.4904 70.9443 18.2021 67.8452 19.5766ZM64.3555 16.6719C64.2513 16.4126 63.9388 16.2829 63.5742 16.4645L60.2407 17.9687C59.6678 18.228 59.4594 18.7208 59.6938 19.2135L59.772 19.3951L64.043 17.4759C64.3555 17.3203 64.5378 17.0869 64.4076 16.7757L64.3555 16.6719Z" fill="white"/>
<path d="M86.0011 11.2304C86.1574 12.164 85.4542 13.1495 84.5167 13.2792C83.5791 13.4089 82.5895 12.8383 82.4332 11.8009C82.277 10.7636 82.902 9.88177 83.9437 9.72616C84.9854 9.57055 85.8448 10.2967 86.0011 11.2304Z" fill="white"/>
<path d="M84.0964 95.0807C91.6095 95.0807 97.7342 86.8994 97.7342 76.8477C97.7342 66.8122 91.6095 58.6309 84.0964 58.6309C76.5833 58.6309 70.4585 66.8122 70.4585 76.8639C70.4585 86.9157 76.5833 95.0807 84.0964 95.0807Z" fill="white"/>
<path d="M124.533 112.808C124.256 112.433 123.978 112.076 123.847 111.767C120.793 105.261 112.447 97.5998 98.9071 97.4209H98.3844C85.0569 97.4209 76.7598 104.675 73.4279 111.474C73.3136 111.702 73.0686 112.011 72.7909 112.32C72.4806 112.694 72.154 113.068 71.8926 113.491C69.0834 117.833 67.6624 122.729 67.8748 127.267C68.0871 132.082 70.1124 135.953 73.5586 138.165C74.9469 139.059 76.4495 139.498 78.0338 139.498C81.284 139.498 84.2566 137.677 87.7028 135.562C89.8914 134.212 92.1616 132.83 94.6769 131.789C94.9545 131.691 96.1142 131.561 98.0088 131.561C100.263 131.561 101.863 131.756 102.206 131.87C104.656 132.944 106.812 134.359 108.903 135.725C112.104 137.823 115.126 139.807 118.392 139.807C119.797 139.807 121.169 139.433 122.443 138.718C129.531 134.7 130.887 123.705 125.448 114.19C125.187 113.686 124.86 113.247 124.533 112.808Z" fill="white"/>
<path d="M113.089 95.0807C120.602 95.0807 126.726 86.8994 126.726 76.8477C126.726 66.8122 120.618 58.6309 113.089 58.6309C105.575 58.6309 99.4507 66.8122 99.4507 76.8639C99.4507 86.9157 105.575 95.0807 113.089 95.0807Z" fill="white"/>
<path d="M135.48 85.7266C129.453 85.7266 124.733 91.9561 124.733 99.8934C124.733 107.831 129.453 114.06 135.48 114.06C141.507 114.06 146.227 107.831 146.227 99.8934C146.227 91.9398 141.507 85.7266 135.48 85.7266Z" fill="white"/>
<path d="M73.5774 99.8934C73.5774 91.9398 68.8573 85.7266 62.8305 85.7266C56.8037 85.7266 52.0835 91.9398 52.0835 99.8934C52.0835 107.831 56.8037 114.06 62.8305 114.06C68.8573 114.06 73.5774 107.831 73.5774 99.8934Z" fill="white"/>
</svg>
