<svg width="193" height="212" viewBox="0 0 193 212" fill="none" xmlns="http://www.w3.org/2000/svg">
<path d="M42.05 59.9698C40.63 60.8898 39.39 61.5298 37.96 62.0798L37.28 62.3398V53.9498H42.05V31.8898H37.28V27.2098H43.55V1.56982H0.5V27.2198H16.11V65.0098H13.41V29.9098H2.29V65.3098H0.5V92.3498C31.54 91.7698 35.72 91.1898 42.05 86.4398V59.9698Z" fill="black"/>
<path d="M67.4002 83.9692L67.7002 84.1792C74.8002 89.0492 83.0002 91.9792 92.0702 92.8892V64.0792C89.2202 63.8892 86.3002 63.6792 83.6102 63.1092L83.0202 62.9792L83.2502 62.4192C86.9702 53.5492 89.2002 43.0292 89.8702 31.1592L89.9002 30.6892H92.0602V4.04924H73.6602V0.969238H49.8202C49.7802 15.3392 47.9402 25.4692 44.7502 28.9092V58.4892C45.3102 58.2492 45.8402 57.9892 46.3602 57.7392C46.7502 57.5492 47.1402 57.3592 47.5302 57.1892L48.0302 56.9592L48.2102 57.4892C48.8002 59.2492 49.4902 61.0392 50.2702 62.8192L50.5102 63.3692L49.9202 63.5092C48.4102 63.8592 46.6302 64.2492 44.7402 64.4692V92.8992C53.3202 91.9492 60.8402 89.0192 67.1102 84.2092L67.4002 83.9692ZM66.4302 48.8192C65.9502 46.9092 65.6602 44.9092 65.5402 42.7292H62.2802L62.7002 41.9792C64.3402 39.0592 65.7602 35.4892 67.0302 31.0492L67.1302 30.6892H70.5302L70.5002 31.2192C70.0902 38.2292 69.0702 43.9992 67.3902 48.8492L66.8402 50.4292L66.4302 48.8192Z" fill="black"/>
<path d="M191.87 92.899V70.259C178.86 69.949 170.66 69.289 164.83 66.749L164.52 66.619V66.729L163.78 66.339C163.68 66.279 163.58 66.229 163.48 66.169L162.61 65.789H162.81C161.56 65.059 160.48 64.309 159.52 63.489L159.34 63.339V60.219H164.51V65.789H190.26V48.689H159.94V45.699H191.46V25.929H186.99V20.849H191.57V3.05904H174.56L174.97 0.769043H148.45C148.06 3.38904 146.82 10.619 145.42 16.689L144.53 20.549H144.56L144.44 20.959V20.889L144.02 22.049C143.76 22.789 143.54 23.409 143.31 23.929L143.18 24.229H139.96V20.539H144.43V3.05904H129.87L130.07 0.769043H102.63C102.19 4.87904 100.8 16.159 99.1299 23.429H117.29L117.89 20.549H121.08V25.929H100.1V45.709H131.52V48.699H101.19V65.799H127.04V60.229H132.21V63.629L132.05 63.779C131.23 64.529 130.28 65.189 129.11 65.799H129.35L127.14 66.759C121.29 69.289 113.1 69.959 100.1 70.259V92.909C111.63 92.129 121.96 89.819 130.83 86.029L131.53 85.729V92.349H159.96V85.519L160.66 85.819C169.43 89.639 179.93 92.019 191.87 92.899ZM159.94 23.429H161.92L162.52 20.549H165.81V25.929H159.94V23.429Z" fill="black"/>
<path d="M37.7902 120.359H1.99023V131.089H37.7902V120.359Z" fill="black"/>
<path d="M37.7902 155.259H1.99023V165.199H37.7902V155.259Z" fill="black"/>
<path d="M78.68 209.879L78.86 209.819L79.04 209.899C82.23 211.279 86.29 211.909 92.17 211.939V197.329C91.82 197.319 91.47 197.299 91.15 197.219L90.63 197.089L90.79 196.579C91.37 194.759 91.75 192.869 92.07 191.059H84.07L83.94 190.749C83.79 190.389 83.7 190.049 83.6 189.649C83.55 189.459 83.49 189.249 83.43 189.019L83.24 188.379H92.07V174.159H81.76L81.73 173.689C81.53 170.219 81.53 166.139 81.53 161.429H65.23C65.23 165.839 65.24 169.999 65.43 173.629L65.46 174.159H60.56V171.199L61.03 171.169C62.23 171.089 62.84 171.019 63.15 170.979V160.359C60.39 161.169 53.36 161.529 40.29 161.539V171.769H43.57V174.159H40.29V188.379H43.57V192.259H43.07C42.59 192.259 42.08 192.239 41.55 192.209C41.14 192.189 40.72 192.169 40.29 192.159V208.059C41.09 208.059 41.85 208.079 42.53 208.159L42.97 208.219V211.939H60.57V207.729L61.46 207.599C61.99 207.519 62.51 207.449 62.97 207.369L63.55 207.269V211.929C70.23 211.799 75.05 211.149 78.68 209.879ZM61.11 193.249L60.55 193.319V188.379H66.64L66.71 188.789C67.31 192.209 68.01 195.159 68.78 197.569L68.96 198.139L68.37 198.219C67.55 198.329 66.83 198.329 65.92 198.329H65.42V192.659C64.1 192.869 62.77 193.049 61.11 193.249Z" fill="black"/>
<path d="M1.99023 180.919V211.939H37.7902V180.919H1.99023ZM22.1802 198.819H17.7002V194.239H22.1802V198.819Z" fill="black"/>
<path d="M37.7902 167.899H1.99023V178.129H37.7902V167.899Z" fill="black"/>
<path d="M92.4895 171.569L91.0395 161.429H83.0195L84.6395 171.569H92.4895Z" fill="black"/>
<path d="M0 152.479H40.28V158.739H92.08V147.509H76.96V144.919H92.08V136.769H76.96V134.079H92.08V122.849H87.2L87.69 120.269H68.54L68.13 122.849H62.46L62.35 122.489C62.18 121.899 62.01 121.159 61.82 120.269H42.87L42.89 120.359C43.04 121.089 43.18 121.749 43.25 122.279L43.33 122.849H40.28V133.689H0V152.479ZM39.28 134.079H54.4V136.769H39.28V134.079ZM39.28 144.919H54.4V147.509H39.28V144.919Z" fill="black"/>
<path d="M109.04 204.969L109.43 204.479L109.82 204.959C113.7 209.739 117.43 211.439 124.05 211.439H191.36V189.969H137.96V187.289L148.1 187.189V176.159H137.96V173.569H148.01V155.869H100.09V173.569H116.69V188.699L115.97 188.339C115.52 188.119 115.14 187.849 114.74 187.569C114.58 187.459 114.41 187.339 114.23 187.219L113.97 187.049L114.02 186.739C114.49 183.479 114.78 180.019 114.9 176.179H102.77C102.71 177.749 102.31 181.019 100.1 182.079V210.949C103.58 210.079 106.59 208.079 109.04 204.969Z" fill="black"/>
<path d="M146.62 153.069V120.659H101.29V153.069H146.62ZM120.86 130.499H127.04V134.479H120.86V130.499ZM120.86 139.149H127.04V143.129H120.86V139.149Z" fill="black"/>
<path d="M190.27 181.709V140.849H181.41L182.01 137.959H192.26V120.759H149.41V137.959H161.06L160.46 140.849H150.71V181.709H153.37L153.05 182.419C152.2 184.289 151.01 185.999 149.76 187.179H166.92C167.83 185.569 168.25 183.979 168.61 182.119L168.69 181.709H172.65L174.35 187.179H191.11L188.72 181.709H190.27ZM173.58 172.269H167.51V168.289H173.58V172.269ZM173.58 163.419H167.51V159.439H173.58V163.419ZM173.58 154.569H167.51V150.689H173.58V154.569Z" fill="black"/>
</svg>
