<svg width="244" height="59" viewBox="0 0 244 59" fill="none" xmlns="http://www.w3.org/2000/svg">
<path d="M26.1511 37.5331C25.2663 38.1064 24.4936 38.5052 23.6025 38.8479L23.1788 39.0099V33.7819H26.1511V20.0357H23.1788V17.1195H27.0858V1.14258H0.260254V17.1257H9.98724V40.6736H8.3048V18.802H1.37565V40.8606H0.260254V57.7099C19.6021 57.3485 22.2067 56.9871 26.1511 54.0272V37.5331Z" fill="black"/>
<path d="M41.9477 52.4884L42.1346 52.6193C46.5588 55.6539 51.6684 57.4797 57.3202 58.0467V40.0945C55.5443 39.9761 53.7247 39.8452 52.0485 39.4901L51.6809 39.409L51.8242 39.0601C54.1422 33.533 55.5318 26.9777 55.9493 19.5812L55.968 19.2883H57.3139V2.68827H45.8484V0.769043H30.9931C30.9682 9.72335 29.8216 16.0356 27.8339 18.1792V36.6112C28.1828 36.4617 28.5131 36.2996 28.8371 36.1439C29.0801 36.0255 29.3231 35.9071 29.5662 35.8011L29.8777 35.6578L29.9899 35.9881C30.3575 37.0848 30.7875 38.2002 31.2735 39.3093L31.4231 39.6521L31.0554 39.7393C30.1145 39.9574 29.0053 40.2004 27.8276 40.3375V58.053C33.1741 57.461 37.86 55.6352 41.7669 52.638L41.9477 52.4884ZM41.3432 30.5856C41.0441 29.3954 40.8634 28.1492 40.7886 26.7908H38.7573L39.019 26.3234C40.0409 24.5039 40.9257 22.2793 41.7171 19.5127L41.7794 19.2883H43.898L43.8793 19.6186C43.6239 23.9867 42.9883 27.5821 41.9414 30.6043L41.5987 31.5888L41.3432 30.5856Z" fill="black"/>
<path d="M119.26 58.0382V44.0326C111.124 43.8408 105.995 43.4325 102.349 41.8612L102.155 41.7808V41.8489L101.693 41.6076C101.63 41.5705 101.568 41.5396 101.505 41.5024L100.961 41.2674H101.086C100.304 40.8158 99.6288 40.3518 99.0284 39.8445L98.9159 39.7517V37.8216H102.149V41.2674H118.253V30.6889H99.2911V28.8392H119.004V16.609H116.208V13.4664H119.073V2.46108H108.435L108.691 1.04443H92.1052C91.8613 2.66523 91.0858 7.13788 90.2102 10.8929L89.6536 13.2808H89.6724L89.5973 13.5344V13.4911L89.3347 14.2087C89.1721 14.6665 89.0345 15.0501 88.8906 15.3718L88.8093 15.5573H86.7955V13.2746H89.5911V2.46108H80.4852L80.6103 1.04443H63.4492C63.174 3.58698 62.3047 10.5651 61.2603 15.0625H72.6176L72.9928 13.2808H74.9879V16.609H61.8669V28.8454H81.5171V30.6951H62.5486V41.2735H78.7153V37.8278H81.9486V39.9311L81.8486 40.0239C81.3357 40.4879 80.7416 40.8962 80.0099 41.2735H80.16L78.7778 41.8674C75.1192 43.4325 69.9972 43.847 61.8669 44.0326V58.0444C69.0778 57.5619 75.5382 56.1329 81.0856 53.7883L81.5234 53.6027V57.698H99.3036V53.4728L99.7414 53.6584C105.226 56.0215 111.793 57.4939 119.26 58.0382ZM99.2911 15.0625H100.529L100.905 13.2808H102.962V16.609H99.2911V15.0625Z" fill="black"/>
<path d="M147.38 0.825195H125.072V7.51134H147.38V0.825195Z" fill="black"/>
<path d="M147.38 22.5723H125.072V28.7661H147.38V22.5723Z" fill="black"/>
<path d="M172.859 56.6072L172.971 56.5698L173.084 56.6196C175.071 57.4795 177.601 57.8721 181.265 57.8908V48.7869C181.047 48.7807 180.829 48.7682 180.63 48.7184L180.306 48.6374L180.405 48.3196C180.767 47.1855 181.004 46.0078 181.203 44.8799H176.218L176.137 44.6868C176.043 44.4625 175.987 44.2506 175.925 44.0013C175.894 43.883 175.857 43.7521 175.819 43.6088L175.701 43.21H181.203V34.3491H174.779L174.76 34.0563C174.635 31.894 174.635 29.3517 174.635 26.4167H164.478C164.478 29.1647 164.484 31.7569 164.603 34.0189L164.622 34.3491H161.568V32.5047L161.861 32.486C162.609 32.4361 162.989 32.3925 163.182 32.3676V25.75C161.462 26.2547 157.082 26.4791 148.938 26.4853V32.8599H150.981V34.3491H148.938V43.21H150.981V45.6277H150.67C150.371 45.6277 150.053 45.6152 149.723 45.5965C149.467 45.5841 149.205 45.5716 148.938 45.5654V55.4731C149.436 55.4731 149.91 55.4855 150.333 55.5354L150.607 55.5728V57.8908H161.574V55.2675L162.129 55.1864C162.459 55.1366 162.783 55.093 163.07 55.0431L163.431 54.9808V57.8846C167.594 57.8036 170.597 57.3985 172.859 56.6072ZM161.911 46.2446L161.562 46.2882V43.21H165.357L165.4 43.4655C165.774 45.5965 166.211 47.4348 166.69 48.9365L166.803 49.2917L166.435 49.3415C165.924 49.4101 165.475 49.4101 164.908 49.4101H164.597V45.8769C163.774 46.0078 162.945 46.12 161.911 46.2446Z" fill="black"/>
<path d="M125.072 38.562V57.8914H147.38V38.562H125.072ZM137.653 49.716H134.861V46.862H137.653V49.716Z" fill="black"/>
<path d="M147.38 30.4482H125.072V36.8228H147.38V30.4482Z" fill="black"/>
<path d="M181.464 32.7355L180.56 26.417H175.563L176.572 32.7355H181.464Z" fill="black"/>
<path d="M123.832 20.8399H148.931V24.7407H181.209V17.743H171.787V16.1291H181.209V11.0506H171.787V9.3744H181.209V2.37671H178.168L178.473 0.769043H166.541L166.285 2.37671H162.752L162.683 2.15238C162.577 1.78474 162.472 1.32362 162.353 0.769043H150.545L150.557 0.825122C150.651 1.28 150.738 1.69127 150.782 2.02153L150.832 2.37671H148.931V9.13138H123.832V20.8399ZM148.308 9.3744H157.73V11.0506H148.308V9.3744ZM148.308 16.1291H157.73V17.743H148.308V16.1291Z" fill="black"/>
<path d="M191.404 53.3049L191.647 52.9996L191.89 53.2987C194.307 56.2772 196.632 57.3365 200.757 57.3365H242.699V43.958H209.424V42.2881L215.743 42.2258V35.3527H209.424V33.7388H215.687V22.7095H185.827V33.7388H196.171V43.1667L195.722 42.9424C195.441 42.8053 195.205 42.637 194.955 42.4625C194.856 42.394 194.75 42.3192 194.638 42.2444L194.476 42.1385L194.507 41.9453C194.8 39.914 194.98 37.7579 195.055 35.3651H187.497C187.459 36.3435 187.21 38.3811 185.833 39.0416V57.0312C188.001 56.4891 189.877 55.2428 191.404 53.3049Z" fill="black"/>
<path d="M214.821 20.9645V0.769043H186.575V20.9645H214.821ZM198.769 6.90059H202.62V9.38064H198.769V6.90059ZM198.769 12.2906H202.62V14.7707H198.769V12.2906Z" fill="black"/>
<path d="M242.02 38.8105V13.3496H236.5L236.873 11.5488H243.26V0.831055H216.56V11.5488H223.819L223.445 13.3496H217.37V38.8105H219.027L218.828 39.253C218.298 40.4182 217.557 41.4838 216.778 42.219H227.47C228.038 41.2158 228.299 40.225 228.524 39.066L228.573 38.8105H231.041L232.1 42.219H242.544L241.055 38.8105H242.02ZM231.621 32.9282H227.838V30.4482H231.621V32.9282ZM231.621 27.4136H227.838V24.9335H231.621V27.4136ZM231.621 21.8989H227.838V19.4812H231.621V21.8989Z" fill="black"/>
</svg>
