<svg width="143" height="55" viewBox="0 0 143 55" fill="none" xmlns="http://www.w3.org/2000/svg">
<path d="M24.4255 24.426V18.9949C20.521 18.9949 17.7907 18.9655 15.4127 18.8187L15.1485 18.7893L15.2072 18.5545C15.2953 18.1728 15.3247 17.7618 15.354 17.3215V17.116H23.6035V6.45916H15.7063V5.54907H24.4255V0.235352H0V5.54907H8.66049V6.45916H0.645867V17.116H8.89535L8.83663 17.4095C8.74856 17.7618 8.57242 18.0848 8.36691 18.349L8.24948 18.4371L8.13205 18.4077C7.80912 18.3196 7.57426 18.1728 7.42747 17.9967H1.05687C1.29173 18.4077 1.55595 18.8481 1.84953 19.2297L2.11375 19.582H0V24.426C4.34492 24.426 7.60362 24.0737 9.92287 23.4278H9.98158H10.0403C13.4458 24.0737 18.0256 24.3966 24.4255 24.426ZM15.1192 9.57106H17.4678V10.7747H15.1192V9.57106ZM15.1192 12.771H17.4678V13.9747H15.1192V12.771ZM9.24764 13.9747H6.95775V12.771H9.24764V13.9747ZM9.24764 10.7747H6.95775V9.57106H9.24764V10.7747Z" fill="#6386D1"/>
<path d="M51.2871 9.42562H48.3514L48.8505 9.04397C49.7018 8.36874 50.7294 7.07701 50.9936 6.0495V0.119262H39.6322V6.19628H44.212L43.8303 6.57793C43.2432 7.16508 42.6267 7.48802 41.9221 7.57609V9.42562H38.7515V1.44035H34.8175V0.0605469H27.8304V1.44035H26.7148V7.72288H27.7424V7.95774C27.5662 12.1852 27.2726 14.2109 26.8029 16.2366L28.3295 17.2054L27.8598 17.3522C27.5075 17.4696 27.1258 17.5577 26.7148 17.6457V24.6329C29.8855 24.0163 32.3809 22.9301 34.3478 21.2274L34.4652 21.1099L39.2212 24.1338V17.0586L38.7808 16.7944H38.6927V16.7357L37.6065 16.1191L37.6652 15.943C38.2524 14.5045 38.6047 12.8898 38.7221 11.1871L39.1625 11.2164V16.3834H41.9221V17.2347C41.9221 17.6164 41.7166 17.8219 41.3349 17.8219H40.1606V24.5154H43.9771C46.8541 24.5154 48.7624 23.6347 48.7624 19.2604V16.354H51.2871V9.42562ZM33.9368 8.72104C33.9368 10.5412 33.6726 12.0384 33.1148 13.2421L33.0267 13.4476L32.3809 13.0953L32.4102 12.9485C32.6157 11.5394 32.7625 10.1596 32.8506 7.92838V7.72288H33.9368V8.72104Z" fill="#6386D1"/>
<path d="M77.7077 0.910024H71.6601L72.394 0.528376L72.4234 0.0586545H66.6693C66.6693 2.61276 66.4638 4.31551 66.0528 5.43109L65.6124 6.57604V1.58525H62.7647L63.1464 0.0292969H56.8345L56.4822 1.58525H53.752V24.2199H65.6124V15.2365L65.7298 15.1778C65.8766 15.0897 66.0234 15.031 66.1996 14.9136L66.5225 14.7081L66.6399 16.7631H71.161L70.6032 10.5393H69.7812L69.928 10.2457C70.2803 9.39437 70.6032 8.543 70.8674 7.72099L70.9261 7.5742H71.8069V16.675C71.8069 17.4383 71.3078 17.9081 70.5151 17.9081H68.6656V24.3961H72.0417C76.4454 24.3961 77.7077 22.8989 77.7077 17.6732V0.910024ZM60.2987 18.7301H59.0657V15.4714H60.2987V18.7301ZM60.2987 10.3338H59.0657V7.10448H60.2987V10.3338Z" fill="#6386D1"/>
<path d="M80.8829 12.1572V24.1938H103.811V12.1572H80.8829ZM97.3819 18.8214H87.3416V17.559H97.3819V18.8214Z" fill="#6386D1"/>
<path d="M80.2062 5.02296V11.1293H90.3052C93.0354 11.1293 95.3841 10.8945 97.2629 10.4248L97.4684 10.366L97.6739 11.1293H104.69L102.371 1.88169H95.3547L96.0006 4.37709L95.7951 4.4358C94.2391 4.84681 92.4777 5.02296 90.3052 5.02296H89.5712L91.9492 0.0615234H84.0814L81.8502 5.02296H80.2062Z" fill="#6386D1"/>
<path d="M124.417 0.0283203H120.014V1.20262H124.417V0.0283203Z" fill="#6386D1"/>
<path d="M120.014 8.95312V11.8889H124.417V8.95312H120.014ZM122.803 11.0375H121.599V9.92193H122.803V11.0375Z" fill="#6386D1"/>
<path d="M131.141 18.1136H119.574V17.2329H131.141V12.7706H129.996V11.8898H131.493L131.317 8.95407H129.967V8.04398H131.288L130.936 3.90456H129.38L131.405 1.35045H128.558L129.849 0.0293576H126.326L125.181 1.14495V2.20182H119.457V3.90456H125.181V4.08071H126.238L125.064 5.43115V8.1027H126.473V9.01278H125.152C125.152 10.3339 125.123 11.2733 125.005 11.9485H126.473V12.8293H117.959V11.9485H119.31L119.075 9.01278H117.959V8.04398H119.457L119.016 3.90456H117.607L119.016 2.17246L119.457 1.64403L119.721 1.32109H116.668L117.93 0H114.348L113.174 1.11559V4.05135H114.202L113.174 5.16694V8.07334H114.495V8.98342H113.174C113.174 10.3339 113.115 11.2733 112.998 11.9192H114.466V12.7999H113.027V14.6494H125.035V15.5302H113.086V19.9338H125.035V20.3742C125.035 20.6677 124.859 20.8439 124.536 20.8439H113.086V24.4255H128.264C130.084 24.4255 131.141 23.4274 131.141 21.6659V18.1136ZM129.057 3.84584L129.174 5.4018H127.736L129.057 3.84584ZM115.67 5.4018L117.049 3.8752L117.167 5.4018H115.67Z" fill="#6386D1"/>
<path d="M124.417 6.86914H120.014V8.04344H124.417V6.86914Z" fill="#6386D1"/>
<path d="M112.265 13.6809V7.75066L106.863 6.95801V12.8882L112.265 13.6809Z" fill="#6386D1"/>
<path d="M112.265 6.83904V0.938163L106.863 0.145508V6.07574L112.265 6.83904Z" fill="#6386D1"/>
<path d="M107.156 14.4434C107.126 15.8819 106.862 22.2525 106.539 24.3075H111.735C112.058 22.8396 112.352 18.4653 112.352 14.4434H107.156Z" fill="#6386D1"/>
<path d="M124.417 4.78516H120.014V5.95946H124.417V4.78516Z" fill="#6386D1"/>
<path d="M142.971 14.1797H135.309V21.4017H138.039V21.6365C138.039 22.6347 137.393 24.1319 136.277 25.2181H141.474C142.384 24.3961 143 22.9576 143 21.6365V14.1797H142.971Z" fill="#6386D1"/>
<path d="M24.4549 37.3604H0V45.9034H24.4549V37.3604Z" fill="#6386D1"/>
<path d="M43.7433 37.3594H34.2314V41.6456H43.7433V37.3594Z" fill="#6386D1"/>
<path d="M51.3172 30.4023H26.8623V54.5049H33.321V36.45H44.9172V47.6646C44.9172 48.0463 44.6824 48.3105 44.3301 48.3105H43.7429V42.5564H34.2311V53.6242H43.5374V54.4756H47.9704C49.9961 54.4756 51.3172 52.949 51.3172 50.571V30.4023ZM39.8677 49.1618H38.0182V46.9894H39.8677V49.1618Z" fill="#6386D1"/>
<path d="M74.8616 49.7194V46.1378H77.8561V39.7378H74.8616V38.6809H77.8561V30.9892H69.2543V30.0498H61.8856V30.9892H53.4893V38.6809H60.4764V37.0076H70.869V38.0644H67.669V39.7378H53.46V46.1378H55.8379L57.2764 52.0093H63.6177L62.1792 46.1378H67.6397V48.3102C67.6397 48.7212 67.4048 48.9855 67.0525 48.9855H63.8232V54.446H70.6635C73.5406 54.446 74.8616 52.9194 74.8616 49.7194Z" fill="#6386D1"/>
<path d="M89.0408 42.8223H80.6152V45.4057H89.0408V42.8223Z" fill="#6386D1"/>
<path d="M89.0408 39.416H80.6152V41.9408H89.0408V39.416Z" fill="#6386D1"/>
<path d="M80.6152 46.3145V54.5052H89.0408V46.3145H80.6152ZM85.4886 51.1291H84.1969V49.7199H85.4886V51.1291Z" fill="#6386D1"/>
<path d="M89.9227 33.6619H80.0879V38.5059H89.9227V43.4086C90.0401 43.3792 90.1575 43.3205 90.275 43.2912L90.7153 43.1444V44.8765H104.572V43.4673H103.134V42.5866H104.044V41.1481H103.134V40.2673H104.044V38.8288H103.134V37.9481H104.572V36.2454H103.016L103.368 35.5701H98.4951L98.1134 36.2454H96.2933L96.3226 36.0105C96.352 35.8637 96.3813 35.7169 96.3813 35.5701H91.3319C91.1851 36.1866 90.7447 36.9499 89.864 37.3022L89.5704 37.4197V34.1903H90.8915V34.6894H96.9978V34.2197H97.9667V34.7188H103.956V34.2197H104.543V30.7848H103.956V29.9922H97.9667V30.7848H96.9978V29.9922H90.8915V30.7848H89.8933V33.6619H89.9227ZM96.5281 37.86H97.996V38.9169H96.5281V37.86ZM96.5281 40.1793H97.996V41.2361H96.5281V40.1793ZM96.5281 42.4985H97.996V43.5554H96.5281V42.4985Z" fill="#6386D1"/>
<path d="M89.0408 30.082H80.6152V32.7829H89.0408V30.082Z" fill="#6386D1"/>
<path d="M97.0262 53.8018H97.0849C98.9638 54.2128 101.371 54.3889 104.6 54.4183V50.7192C104.571 50.7192 104.512 50.7192 104.483 50.7192C104.366 50.7192 104.248 50.7192 104.131 50.7192H103.72L103.955 50.367C104.131 50.1027 104.277 49.8679 104.366 49.6624V45.7578H90.1858V49.222H98.6995L97.9363 49.633C97.5253 49.8385 97.0262 50.044 96.4097 50.2202H96.3509C96.2922 50.2202 96.2335 50.1908 96.2042 50.1615H91.184C91.2427 50.2202 91.2721 50.3082 91.3014 50.367L91.6244 50.866H90.0391V54.4477C92.828 54.4477 95.1473 54.2422 97.0849 53.8312L97.0262 53.8018Z" fill="#6386D1"/>
</svg>
